<?xml version="1.0" standalone="no"?>
<!DOCTYPE svg PUBLIC "-//W3C//DTD SVG 1.1//EN" "http://www.w3.org/Graphics/SVG/1.1/DTD/svg11.dtd" >
<svg xmlns="http://www.w3.org/2000/svg">
<metadata>Generated by IcoMoon</metadata>
<defs>
<font id="millionpodcasts" horiz-adv-x="1024">
<font-face units-per-em="1024" ascent="960" descent="-64" />
<missing-glyph horiz-adv-x="1024" />
<glyph unicode="&#x20;" horiz-adv-x="512" d="" />
<glyph unicode="&#xe900;" glyph-name="address-book" d="M768 864c17.6 0 32-14.4 32-32v-768c0-17.6-14.4-32-32-32h-576c-17.6 0-32 14.4-32 32v768c0 17.6 14.4 32 32 32h576zM192 960c-70.6 0-128-57.4-128-128v-768c0-70.6 57.4-128 128-128h576c70.6 0 128 57.4 128 128v768c0 70.6-57.4 128-128 128h-576zM480 448c70.692 0 128 57.308 128 128s-57.308 128-128 128v0c-70.692 0-128-57.308-128-128s57.308-128 128-128v0zM416 384c-88.4 0-160-71.6-160-160 0-17.6 14.4-32 32-32h384c17.6 0 32 14.4 32 32 0 88.4-71.6 160-160 160h-128zM1024 800c0 17.6-14.4 32-32 32s-32-14.4-32-32v-128c0-17.6 14.4-32 32-32s32 14.4 32 32v128zM992 576c-17.6 0-32-14.4-32-32v-128c0-17.6 14.4-32 32-32s32 14.4 32 32v128c0 17.6-14.4 32-32 32zM1024 288c0 17.6-14.4 32-32 32s-32-14.4-32-32v-128c0-17.6 14.4-32 32-32s32 14.4 32 32v128z" />
<glyph unicode="&#xe901;" glyph-name="apple" horiz-adv-x="768" d="M637.4 422.6c-0.4 73.4 32.8 128.8 100 169.6-37.6 53.8-94.4 83.4-169.4 89.2-71 5.6-148.6-41.4-177-41.4-30 0-98.8 39.4-152.8 39.4-111.6-1.8-230.2-89-230.2-266.4q0-78.6 28.8-162.4c25.6-73.4 118-253.4 214.4-250.4 50.4 1.2 86 35.8 151.6 35.8 63.6 0 96.6-35.8 152.8-35.8 97.2 1.4 180.8 165 205.2 238.6-130.4 61.4-123.4 180-123.4 183.8zM524.2 751c54.6 64.8 49.6 123.8 48 145-48.2-2.8-104-32.8-135.8-69.8-35-39.6-55.6-88.6-51.2-143.8 52.2-4 99.8 22.8 139 68.6z" />
<glyph unicode="&#xe902;" glyph-name="arrow-down-wide-short" horiz-adv-x="1152" d="M30 206l192-192c18.8-18.8 49.2-18.8 67.8 0l192 192c18.8 18.8 18.8 49.2 0 67.8s-49.2 18.8-67.8 0l-110-110v684.2c0 26.6-21.4 48-48 48s-48-21.4-48-48v-684.2l-110 110.2c-18.8 18.8-49.2 18.8-67.8 0s-18.8-49.2 0-67.8zM624 0h96c26.6 0 48 21.4 48 48s-21.4 48-48 48h-96c-26.6 0-48-21.4-48-48s21.4-48 48-48zM624 256h224c26.6 0 48 21.4 48 48s-21.4 48-48 48h-224c-26.6 0-48-21.4-48-48s21.4-48 48-48zM624 512h352c26.6 0 48 21.4 48 48s-21.4 48-48 48h-352c-26.6 0-48-21.4-48-48s21.4-48 48-48zM624 768h480c26.6 0 48 21.4 48 48s-21.4 48-48 48h-480c-26.6 0-48-21.4-48-48s21.4-48 48-48z" />
<glyph unicode="&#xe903;" glyph-name="arrow-right-from-bracket" d="M1010 414c18.8 18.8 18.8 49.2 0 67.8l-256 256.2c-18.8 18.8-49.2 18.8-67.8 0s-18.8-49.2 0-67.8l174-174-492.2-0.2c-26.6 0-48-21.4-48-48s21.4-48 48-48h492.2l-174-174c-18.8-18.8-18.8-49.2 0-67.8s49.2-18.8 67.8 0l256 255.8zM336 800c26.6 0 48 21.4 48 48s-21.4 48-48 48h-160c-97.2 0-176-78.8-176-176v-544c0-97.2 78.8-176 176-176h160c26.6 0 48 21.4 48 48s-21.4 48-48 48h-160c-44.2 0-80 35.8-80 80v544c0 44.2 35.8 80 80 80h160z" />
<glyph unicode="&#xe904;" glyph-name="arrow-up-to-line" horiz-adv-x="768" d="M48 896c-26.6 0-48-21.4-48-48s21.4-48 48-48h672c26.6 0 48 21.4 48 48s-21.4 48-48 48h-672zM419 624.8c-9 9.6-21.8 15.2-35 15.2s-25.8-5.4-35-15.2l-256-272c-18.2-19.4-17.2-49.6 2-67.8s49.6-17.2 67.8 2l173.2 184v-423c0-26.6 21.4-48 48-48s48 21.4 48 48v423l173-183.8c18.2-19.4 48.6-20.2 67.8-2s20.2 48.6 2 67.8l-256 272z" />
<glyph unicode="&#xe905;" glyph-name="calendar" horiz-adv-x="896" d="M304 912c0 26.6-21.4 48-48 48s-48-21.4-48-48v-80h-80c-70.6 0-128-57.4-128-128v-640c0-70.6 57.4-128 128-128h640c70.6 0 128 57.4 128 128v640c0 70.6-57.4 128-128 128h-80v80c0 26.6-21.4 48-48 48s-48-21.4-48-48v-80h-288v80zM96 576h704v-512c0-17.6-14.4-32-32-32h-640c-17.6 0-32 14.4-32 32v512z" />
<glyph unicode="&#xe906;" glyph-name="check" horiz-adv-x="896" d="M882 754c18.8-18.8 18.8-49.2 0-67.8l-528-528.2c-18.8-18.8-49.2-18.8-67.8 0l-272.2 272c-18.8 18.8-18.8 49.2 0 67.8s49.2 18.8 67.8 0l238-238 494.2 494.2c18.8 18.8 49.2 18.8 67.8 0z" />
<glyph unicode="&#xe907;" glyph-name="chevron-down" d="M478 158c18.8-18.8 49.2-18.8 67.8 0l384.2 384c18.8 18.8 18.8 49.2 0 67.8s-49.2 18.8-67.8 0l-350-350-350.2 350.2c-18.8 18.8-49.2 18.8-67.8 0s-18.8-49.2 0-67.8l383.8-384.2z" />
<glyph unicode="&#xe908;" glyph-name="chevron-left" horiz-adv-x="640" d="M30 482c-18.8-18.8-18.8-49.2 0-67.8l384-384.2c18.8-18.8 49.2-18.8 67.8 0s18.8 49.2 0 67.8l-350 350.2 350.2 350c18.8 18.8 18.8 49.2 0 67.8s-49.2 18.8-67.8 0l-384.2-383.8z" />
<glyph unicode="&#xe909;" glyph-name="chevron-right" horiz-adv-x="640" d="M610 482c18.8-18.8 18.8-49.2 0-67.8l-384-384.2c-18.8-18.8-49.2-18.8-67.8 0s-18.8 49.2 0 67.8l350 350-350.2 350.2c-18.8 18.8-18.8 49.2 0 67.8s49.2 18.8 67.8 0l384.2-383.8z" />
<glyph unicode="&#xe90a;" glyph-name="chevron-up" d="M478 738c18.8 18.8 49.2 18.8 67.8 0l384.2-384c18.8-18.8 18.8-49.2 0-67.8s-49.2-18.8-67.8 0l-350 350-350.2-350.2c-18.8-18.8-49.2-18.8-67.8 0s-18.8 49.2 0 67.8l383.8 384.2z" />
<glyph unicode="&#xe90b;" glyph-name="chevrons-left" d="M94 482c-18.8-18.8-18.8-49.2 0-67.8l384-384.2c18.8-18.8 49.2-18.8 67.8 0s18.8 49.2 0 67.8l-350 350.2 350.2 350c18.8 18.8 18.8 49.2 0 67.8s-49.2 18.8-67.8 0l-384.2-383.8zM862 866l-384-384c-18.8-18.8-18.8-49.2 0-67.8l384-384.2c18.8-18.8 49.2-18.8 67.8 0s18.8 49.2 0 67.8l-350 350 350.2 350.2c18.8 18.8 18.8 49.2 0 67.8s-49.2 18.8-67.8 0z" />
<glyph unicode="&#xe90c;" glyph-name="chevrons-right" d="M930 482c18.8-18.8 18.8-49.2 0-67.8l-384-384.2c-18.8-18.8-49.2-18.8-67.8 0s-18.8 49.2 0 67.8l350 350-350.2 350.2c-18.8 18.8-18.8 49.2 0 67.8s49.2 18.8 67.8 0l384.2-383.8zM162 866l384-384c18.8-18.8 18.8-49.2 0-67.8l-384-384.2c-18.8-18.8-49.2-18.8-67.8 0s-18.8 49.2 0 67.8l350 350-350.2 350.2c-18.8 18.8-18.8 49.2 0 67.8s49.2 18.8 67.8 0z" />
<glyph unicode="&#xe90d;" glyph-name="circle-dot" d="M928 448c0 229.75-186.25 416-416 416s-416-186.25-416-416v0c0-229.75 186.25-416 416-416s416 186.25 416 416v0zM0 448c0 282.77 229.23 512 512 512s512-229.23 512-512v0c0-282.77-229.23-512-512-512s-512 229.23-512 512v0zM512 640c106.039 0 192-85.961 192-192s-85.961-192-192-192v0c-106.039 0-192 85.961-192 192s85.961 192 192 192v0z" />
<glyph unicode="&#xe90e;" glyph-name="circle-info" d="M512 864c229.75 0 416-186.25 416-416s-186.25-416-416-416v0c-229.75 0-416 186.25-416 416s186.25 416 416 416v0zM512-64c282.77 0 512 229.23 512 512s-229.23 512-512 512v0c-282.77 0-512-229.23-512-512s229.23-512 512-512v0zM432 288c-26.6 0-48-21.4-48-48s21.4-48 48-48h160c26.6 0 48 21.4 48 48s-21.4 48-48 48h-16v176c0 26.6-21.4 48-48 48h-96c-26.6 0-48-21.4-48-48s21.4-48 48-48h48v-128h-48zM512 576c35.346 0 64 28.654 64 64s-28.654 64-64 64v0c-35.346 0-64-28.654-64-64s28.654-64 64-64v0z" />
<glyph unicode="&#xe90f;" glyph-name="circle-question" d="M928 448c0 229.75-186.25 416-416 416s-416-186.25-416-416v0c0-229.75 186.25-416 416-416s416 186.25 416 416v0zM0 448c0 282.77 229.23 512 512 512s512-229.23 512-512v0c0-282.77-229.23-512-512-512s-512 229.23-512 512v0zM339.6 629.4c15.8 44.6 58.2 74.6 105.6 74.6h116.6c69.8 0 126.2-56.6 126.2-126.2 0-45.2-24.2-87-63.4-109.6l-64.6-37c-0.4-26-21.8-47.2-48-47.2-26.6 0-48 21.4-48 48v27c0 17.2 9.2 33 24.2 41.6l88.6 50.8c9.4 5.4 15.2 15.4 15.2 26.2 0 16.8-13.6 30.2-30.2 30.2h-116.6c-6.8 0-12.8-4.2-15-10.6l-0.8-2.4c-8.8-25-36.4-38-61.2-29.2s-38 36.4-29.2 61.2l0.8 2.4zM448 256c0 35.346 28.654 64 64 64s64-28.654 64-64v0c0-35.346-28.654-64-64-64s-64 28.654-64 64v0z" />
<glyph unicode="&#xe910;" glyph-name="circle-small" horiz-adv-x="640" d="M0 448c0 176.731 143.269 320 320 320s320-143.269 320-320v0c0-176.731-143.269-320-320-320s-320 143.269-320 320v0z" />
<glyph unicode="&#xe911;" glyph-name="circle" d="M928 448c0 229.75-186.25 416-416 416s-416-186.25-416-416v0c0-229.75 186.25-416 416-416s416 186.25 416 416v0zM0 448c0 282.77 229.23 512 512 512s512-229.23 512-512v0c0-282.77-229.23-512-512-512s-512 229.23-512 512v0z" />
<glyph unicode="&#xe912;" glyph-name="clock-rotate-left" d="M96 746.6v101.4c0 26.6-21.4 48-48 48s-48-21.4-48-48v-224c0-26.6 21.4-48 48-48h224c26.6 0 48 21.4 48 48s-21.4 48-48 48h-110.6c74 115.6 203.4 192 350.6 192 229.8 0 416-186.2 416-416s-186.2-416-416-416c-85 0-163.8 25.4-229.4 69-22 14.6-51.8 8.6-66.6-13.4s-8.6-51.8 13.4-66.6c81-53.8 178.2-85 282.6-85 282.8 0 512 229.2 512 512s-229.2 512-512 512c-171.4 0-323.2-84.2-416-213.4zM512 704c-26.6 0-48-21.4-48-48v-208c0-12.8 5-25 14-34l144-144c18.8-18.8 49.2-18.8 67.8 0s18.8 49.2 0 67.8l-130 130v188.2c0 26.6-21.4 48-48 48z" />
<glyph unicode="&#xe913;" glyph-name="clock-three" d="M928 448c0-229.75-186.25-416-416-416s-416 186.25-416 416v0c0 229.75 186.25 416 416 416s416-186.25 416-416v0zM0 448c0-282.77 229.23-512 512-512s512 229.23 512 512v0c0 282.77-229.23 512-512 512s-512-229.23-512-512v0zM464 720v-272c0-26.6 21.4-48 48-48h208c26.6 0 48 21.4 48 48s-21.4 48-48 48h-160v224c0 26.6-21.4 48-48 48s-48-21.4-48-48z" />
<glyph unicode="&#xe914;" glyph-name="copy" horiz-adv-x="896" d="M768 288h-384c-17.6 0-32 14.4-32 32v512c0 17.6 14.4 32 32 32h280.2l135.8-135.8v-408.2c0-17.6-14.4-32-32-32zM384 192h384c70.6 0 128 57.4 128 128v408.2c0 25.4-10.2 49.8-28.2 67.8l-135.6 135.8c-18 18-42.4 28.2-67.8 28.2h-280.4c-70.6 0-128-57.4-128-128v-512c0-70.6 57.4-128 128-128zM128 704c-70.6 0-128-57.4-128-128v-512c0-70.6 57.4-128 128-128h384c70.6 0 128 57.4 128 128v64h-96v-64c0-17.6-14.4-32-32-32h-384c-17.6 0-32 14.4-32 32v512c0 17.6 14.4 32 32 32h64v96h-64z" />
<glyph unicode="&#xe915;" glyph-name="credit-card-light" horiz-adv-x="1152" d="M128 832c-35.4 0-64-28.6-64-64v-64h1024v64c0 35.4-28.6 64-64 64h-896zM64 640v-128h1024v128h-1024zM64 448v-320c0-35.4 28.6-64 64-64h896c35.4 0 64 28.6 64 64v320h-1024zM0 768c0 70.6 57.4 128 128 128h896c70.6 0 128-57.4 128-128v-640c0-70.6-57.4-128-128-128h-896c-70.6 0-128 57.4-128 128v640zM192 224c0 17.6 14.4 32 32 32h128c17.6 0 32-14.4 32-32s-14.4-32-32-32h-128c-17.6 0-32 14.4-32 32zM448 224c0 17.6 14.4 32 32 32h256c17.6 0 32-14.4 32-32s-14.4-32-32-32h-256c-17.6 0-32 14.4-32 32z" />
<glyph unicode="&#xe916;" glyph-name="credit-card" horiz-adv-x="1152" d="M1024 800c17.6 0 32-14.4 32-32v-64h-960v64c0 17.6 14.4 32 32 32h896zM1056 512v-384c0-17.6-14.4-32-32-32h-896c-17.6 0-32 14.4-32 32v384h960zM128 896c-70.6 0-128-57.4-128-128v-640c0-70.6 57.4-128 128-128h896c70.6 0 128 57.4 128 128v640c0 70.6-57.4 128-128 128h-896zM240 288c-26.6 0-48-21.4-48-48s21.4-48 48-48h96c26.6 0 48 21.4 48 48s-21.4 48-48 48h-96zM496 288c-26.6 0-48-21.4-48-48s21.4-48 48-48h224c26.6 0 48 21.4 48 48s-21.4 48-48 48h-224z" />
<glyph unicode="&#xe917;" glyph-name="crown" horiz-adv-x="1152" d="M618 748c22.8 14 38 39.4 38 68 0 44.2-35.8 80-80 80s-80-35.8-80-80c0-28.8 15.2-54 38-68l-114.6-229.2c-18.2-36.4-65.4-46.8-97.2-21.4l-178.2 142.6c10 13.4 16 30 16 48 0 44.2-35.8 80-80 80s-80-35.8-80-80 35.8-80 80-80c0.4 0 1 0 1.4 0l8.8-47.8 82.6-455c11-60.8 64-105.2 126-105.2h554.4c61.8 0 114.8 44.2 126 105.2l82.8 455 8.8 47.8c0.4 0 1 0 1.4 0 44.2 0 80 35.8 80 80s-35.8 80-80 80-80-35.8-80-80c0-18 6-34.6 16-48l-178.2-142.6c-31.8-25.4-79-15-97.2 21.4l-103.2 205.8-11.6 23.4zM267.4 122.2l-63 346.6 57.8-46.2c79.6-63.6 197.6-37.8 243 53.4l70.8 141.4 70.8-141.4c45.6-91.2 163.6-117 243-53.4l57.8 46.2-63-346.6c-2.8-15.2-16-26.2-31.4-26.2h-554.4c-15.4 0-28.8 11-31.4 26.2z" />
<glyph unicode="&#xe918;" glyph-name="download" d="M560 912c0 26.6-21.4 48-48 48s-48-21.4-48-48v-540.2l-190 190c-18.8 18.8-49.2 18.8-67.8 0s-18.8-49.2 0-67.8l271.8-272c18.8-18.8 49.2-18.8 67.8 0l272.2 272c18.8 18.8 18.8 49.2 0 67.8s-49.2 18.8-67.8 0l-190-190v540.2zM257.6 352h-129.6c-70.6 0-128-57.4-128-128v-160c0-70.6 57.4-128 128-128h768c70.6 0 128 57.4 128 128v160c0 70.6-57.4 128-128 128h-129.6l-96-96h225.6c17.6 0 32-14.4 32-32v-160c0-17.6-14.4-32-32-32h-768c-17.6 0-32 14.4-32 32v160c0 17.6 14.4 32 32 32h225.6l-96 96zM864 144c0 26.51-21.49 48-48 48s-48-21.49-48-48v0c0-26.51 21.49-48 48-48s48 21.49 48 48v0z" />
<glyph unicode="&#xe919;" glyph-name="envelope" d="M128 736c-17.6 0-32-14.4-32-32v-44.2l345-283.2c41.4-34 100.8-34 142.2 0l344.8 283.2v44.2c0 17.6-14.4 32-32 32h-768zM96 535.6v-343.6c0-17.6 14.4-32 32-32h768c17.6 0 32 14.4 32 32v343.6l-284-233.2c-76.8-63-187.4-63-264 0l-284 233.2zM0 704c0 70.6 57.4 128 128 128h768c70.6 0 128-57.4 128-128v-512c0-70.6-57.4-128-128-128h-768c-70.6 0-128 57.4-128 128v512z" />
<glyph unicode="&#xe91a;" glyph-name="eye" horiz-adv-x="1152" d="M576 800c-130.4 0-237.6-59.2-319.8-135.4-77-71.6-130.2-156.6-157.4-216.6 27.2-60 80.4-145 157.2-216.6 82.4-76.2 189.6-135.4 320-135.4s237.6 59.2 319.8 135.4c77 71.6 130.2 156.6 157.4 216.6-27.2 60-80.4 145-157.2 216.6-82.4 76.2-189.6 135.4-320 135.4zM190.8 734.8c94.2 87.6 223.6 161.2 385.2 161.2s291-73.6 385.2-161.2c93.6-87 156.2-190.8 186-262.2 6.6-15.8 6.6-33.4 0-49.2-29.8-71.4-92.4-175.4-186-262.2-94.2-87.6-223.6-161.2-385.2-161.2s-291 73.6-385.2 161.2c-93.6 86.8-156.2 190.8-185.8 262.2-6.6 15.8-6.6 33.4 0 49.2 29.6 71.4 92.2 175.4 185.8 262.2zM576 288c88.4 0 160 71.6 160 160s-71.6 160-160 160c-1.4 0-2.6 0-4 0 2.6-10.2 4-21 4-32 0-70.6-57.4-128-128-128-11 0-21.8 1.4-32 4 0-1.4 0-2.6 0-4 0-88.4 71.6-160 160-160zM576 704c141.385 0 256-114.615 256-256s-114.615-256-256-256v0c-141.385 0-256 114.615-256 256s114.615 256 256 256v0z" />
<glyph unicode="&#xe91b;" glyph-name="facebook-f" horiz-adv-x="640" d="M558.28 384l28.44 185.32h-177.82v120.26c0 50.7 24.84 100.12 104.48 100.12h80.84v157.78s-73.36 12.52-143.5 12.52c-146.44 0-242.16-88.76-242.16-249.44v-141.24h-162.78v-185.32h162.78v-448h200.34v448z" />
<glyph unicode="&#xe91c;" glyph-name="file-spreadsheet" horiz-adv-x="768" d="M96 64v768c0 17.6 14.4 32 32 32h320v-160c0-35.4 28.6-64 64-64h160v-576c0-17.6-14.4-32-32-32h-512c-17.6 0-32 14.4-32 32zM128 960c-70.6 0-128-57.4-128-128v-768c0-70.6 57.4-128 128-128h512c70.6 0 128 57.4 128 128v587c0 34-13.4 66.6-37.4 90.6l-181.2 181c-24 24-56.4 37.4-90.4 37.4h-331zM352 448v-96h-128v96h128zM224 288h128v-96h-128v96zM416 288h128v-96h-128v96zM384 128h160c35.4 0 64 28.6 64 64v256c0 35.4-28.6 64-64 64h-320c-35.4 0-64-28.6-64-64v-256c0-35.4 28.6-64 64-64h160zM416 352v96h128v-96h-128z" />
<glyph unicode="&#xe91d;" glyph-name="filter" d="M0 812.6c0 46 37.4 83.4 83.4 83.4h857.2c46 0 83.4-37.4 83.4-83.4 0-19.2-6.6-37.8-18.8-52.6l-333.2-409v-286.4c0-35.6-29-64.6-64.6-64.6-14.6 0-28.8 5-40.2 14l-185 146.8c-19.2 15.2-30.2 38.2-30.2 62.6v127.6l-333.2 409c-12.2 14.8-18.8 33.4-18.8 52.6zM110 800l327.2-401.6c7-8.6 10.8-19.2 10.8-30.4v-136.8l128-101.6v238.4c0 11 3.8 21.8 10.8 30.4l327.2 401.6h-804z" />
<glyph unicode="&#xe91e;" glyph-name="gauge-light" d="M512 896c247.424 0 448-200.576 448-448s-200.576-448-448-448v0c-247.424 0-448 200.576-448 448s200.576 448 448 448v0zM512-64c282.77 0 512 229.23 512 512s-229.23 512-512 512v0c-282.77 0-512-229.23-512-512s229.23-512 512-512v0zM512 320c35.346 0 64-28.654 64-64s-28.654-64-64-64v0c-35.346 0-64 28.654-64 64s28.654 64 64 64v0zM512 128c70.6 0 128 57.4 128 128 0 59.6-40.8 109.8-96 124v388c0 17.6-14.4 32-32 32s-32-14.4-32-32v-388c-55.2-14.2-96-64.4-96-124 0-70.6 57.4-128 128-128zM288 624c26.51 0 48 21.49 48 48s-21.49 48-48 48v0c-26.51 0-48-21.49-48-48s21.49-48 48-48v0zM240 448c0 26.51-21.49 48-48 48s-48-21.49-48-48v0c0-26.51 21.49-48 48-48s48 21.49 48 48v0zM832 400c26.51 0 48 21.49 48 48s-21.49 48-48 48v0c-26.51 0-48-21.49-48-48s21.49-48 48-48v0zM784 672c0 26.51-21.49 48-48 48s-48-21.49-48-48v0c0-26.51 21.49-48 48-48s48 21.49 48 48v0z" />
<glyph unicode="&#xe91f;" glyph-name="gear" d="M512 960c34 0 67.2-3.4 99.6-9.6 15.8-3 43.6-12.2 58.8-40.2 4-7.4 7.2-15.2 9.2-23.6l18.6-77c2.8-11.6 22.4-23 33.8-19.6l76 22.4c8 2.4 16.2 3.6 24.4 3.8 32.2 1 54-18.8 64.6-30.8 44.2-50.2 78.2-109.2 99.8-172.6 5.2-15.2 11.2-43.6-5.4-70.8-4.4-7.2-9.8-14-16-20l-57.4-54.6c-8.4-8-8.4-31 0-39l57.4-54.6c6.2-6 11.6-12.8 16-20 16.4-27.2 10.4-55.6 5.4-70.8-21.6-63.4-55.6-122.2-99.8-172.6-10.6-12-32.6-31.8-64.6-30.8-8.2 0.2-16.4 1.6-24.4 3.8l-76 22.6c-11.4 3.4-31-8-33.8-19.6l-18.6-77c-2-8.4-5.2-16.4-9.2-23.6-15.4-28-43.2-37-58.8-40.2-32.4-6.2-65.6-9.6-99.6-9.6s-67.2 3.4-99.6 9.6c-15.8 3-43.6 12.2-58.8 40.2-4 7.4-7.2 15.2-9.2 23.6l-18.6 77c-2.8 11.6-22.4 23-33.8 19.6l-76-22.4c-8-2.4-16.2-3.6-24.4-3.8-32.2-1-54 18.8-64.6 30.8-44 50.2-78.2 109.2-99.8 172.6-5.2 15.2-11.2 43.6 5.4 70.8 4.4 7.2 9.8 14 16 20l57.4 54.6c8.4 8 8.4 31 0 39l-57.6 54.6c-6.2 6-11.6 12.8-16 20-16.4 27.2-10.4 55.6-5.2 70.6 21.6 63.4 55.6 122.2 99.8 172.6 10.6 12 32.6 31.8 64.6 30.8 8.2-0.2 16.4-1.6 24.4-3.8l76-22.4c11.4-3.4 31 8 33.8 19.6l18.6 77c2 8.4 5.2 16.4 9.2 23.6 15.4 28 43.2 37 58.8 40.2 32.4 6.2 65.6 9.6 99.6 9.6zM436.2 857.2l-17-70.2c-15.6-64.6-90.6-107.8-154.4-89.2l-69 20.4c-33-38.6-59-83.4-76-131.4l52.4-49.8c48-45.6 48-132.4 0-178l-52.4-49.8c17-48 43-92.8 76-131.4l69.2 20.4c63.6 18.8 138.8-24.6 154.4-89.2l17-70.2c49.2-9 102.6-9 151.8 0l17 70.2c15.6 64.6 90.6 107.8 154.4 89.2l69.2-20.4c33 38.6 59 83.4 76 131.4l-52.4 49.8c-48 45.6-48 132.4 0 178l52.4 49.8c-17 48-43 92.8-76 131.4l-69.2-20.4c-63.6-18.8-138.8 24.6-154.4 89.2l-17 70.2c-49.2 9-102.6 9-151.8 0zM416 448c0-53.019 42.981-96 96-96s96 42.981 96 96v0c0 53.019-42.981 96-96 96s-96-42.981-96-96v0zM512 256c-106.039 0-192 85.961-192 192s85.961 192 192 192v0c106.039 0 192-85.961 192-192s-85.961-192-192-192v0z" />
<glyph unicode="&#xe920;" glyph-name="google" horiz-adv-x="976" d="M976 436.4c0-283-193.8-484.4-480-484.4-274.4 0-496 221.6-496 496s221.6 496 496 496c133.6 0 246-49 332.6-129.8l-135-129.8c-176.6 170.4-505 42.4-505-236.4 0-173 138.2-313.2 307.4-313.2 196.4 0 270 140.8 281.6 213.8h-281.6v170.6h472.2c4.6-25.4 7.8-49.8 7.8-82.8z" />
<glyph unicode="&#xe921;" glyph-name="house" horiz-adv-x="1152" d="M607 948.6c-18 15.2-44.2 15.2-62.2 0l-528-448c-20.2-17.2-22.6-47.4-5.6-67.6s47.4-22.6 67.6-5.6l49.2 41.6v-373c0-88.4 71.6-160 160-160h576c88.4 0 160 71.6 160 160v373l49-41.6c20.2-17.2 50.6-14.6 67.6 5.6s14.6 50.6-5.6 67.6l-528 448zM224 96v454.4l352 298.6 352-298.6v-454.4c0-35.4-28.6-64-64-64h-96v304c0 44.2-35.8 80-80 80h-224c-44.2 0-80-35.8-80-80v-304h-96c-35.4 0-64 28.6-64 64zM480 32v288h192v-288h-192z" />
<glyph unicode="&#xe922;" glyph-name="image" d="M896 800c17.6 0 32-14.4 32-32v-639.6l-10 13-272 352c-9 11.8-23.2 18.6-38 18.6s-28.8-6.8-38-18.6l-166-214.8-61 85.4c-9 12.6-23.4 20-39 20s-30-7.4-39-20.2l-160-224-9-12.4v640.6c0 17.6 14.4 32 32 32h768zM128 896c-70.6 0-128-57.4-128-128v-640c0-70.6 57.4-128 128-128h768c70.6 0 128 57.4 128 128v640c0 70.6-57.4 128-128 128h-768zM288 512c53.019 0 96 42.981 96 96s-42.981 96-96 96v0c-53.019 0-96-42.981-96-96s42.981-96 96-96v0z" />
<glyph unicode="&#xe923;" glyph-name="instagram" horiz-adv-x="896" d="M448.2 678c-127.2 0-229.8-102.6-229.8-229.8s102.6-229.8 229.8-229.8 229.8 102.6 229.8 229.8-102.6 229.8-229.8 229.8zM448.2 298.8c-82.2 0-149.4 67-149.4 149.4s67 149.4 149.4 149.4 149.4-67 149.4-149.4-67.2-149.4-149.4-149.4zM741 687.4c0-29.8-24-53.6-53.6-53.6-29.8 0-53.6 24-53.6 53.6s24 53.6 53.6 53.6 53.6-24 53.6-53.6zM893.2 633c-3.4 71.8-19.8 135.4-72.4 187.8-52.4 52.4-116 68.8-187.8 72.4-74 4.2-295.8 4.2-369.8 0-71.6-3.4-135.2-19.8-187.8-72.2s-68.8-116-72.4-187.8c-4.2-74-4.2-295.8 0-369.8 3.4-71.8 19.8-135.4 72.4-187.8s116-68.8 187.8-72.4c74-4.2 295.8-4.2 369.8 0 71.8 3.4 135.4 19.8 187.8 72.4 52.4 52.4 68.8 116 72.4 187.8 4.2 74 4.2 295.6 0 369.6zM797.6 184c-15.6-39.2-45.8-69.4-85.2-85.2-59-23.4-199-18-264.2-18s-205.4-5.2-264.2 18c-39.2 15.6-69.4 45.8-85.2 85.2-23.4 59-18 199-18 264.2s-5.2 205.4 18 264.2c15.6 39.2 45.8 69.4 85.2 85.2 59 23.4 199 18 264.2 18s205.4 5.2 264.2-18c39.2-15.6 69.4-45.8 85.2-85.2 23.4-59 18-199 18-264.2s5.4-205.4-18-264.2z" />
<glyph unicode="&#xe924;" glyph-name="key-skeleton" horiz-adv-x="896" d="M608 864c106.039 0 192-85.961 192-192s-85.961-192-192-192v0c-106.039 0-192 85.961-192 192s85.961 192 192 192v0zM608 384c159 0 288 129 288 288s-129 288-288 288-288-129-288-288c0-62.2 19.8-119.8 53.2-166.8l-359.2-359.2c-18.8-18.8-18.8-49.2 0-67.8l128-128c18.8-18.8 49.2-18.8 67.8 0s18.8 49.2 0 67.8l-94 94 60.2 60.2 94-94c18.8-18.8 49.2-18.8 67.8 0s18.8 49.2 0 67.8l-94 94 197.2 197.2c47.2-33.4 104.8-53.2 167-53.2z" />
<glyph unicode="&#xe925;" glyph-name="linkedin-in" horiz-adv-x="896" d="M200.56 64h-185.76v598.2h185.76zM107.58 743.8c-59.4 0-107.58 49.2-107.58 108.6 0 59.415 48.165 107.58 107.58 107.58s107.58-48.165 107.58-107.58v0c0-59.4-48.2-108.6-107.58-108.6zM895.8 64h-185.36v291.2c0 69.4-1.4 158.4-96.58 158.4-96.58 0-111.38-75.4-111.38-153.4v-296.2h-185.56v598.2h178.16v-81.6h2.6c24.8 47 85.38 96.6 175.76 96.6 188 0 222.56-123.8 222.56-284.6v-328.6z" />
<glyph unicode="&#xe926;" glyph-name="linkedin" horiz-adv-x="896" d="M832 896h-768.2c-35.2 0-63.8-29-63.8-64.6v-766.8c0-35.6 28.6-64.6 63.8-64.6h768.2c35.2 0 64 29 64 64.6v766.8c0 35.6-28.8 64.6-64 64.6zM270.8 128h-132.8v427.6h133v-427.6zM204.4 614c-42.6 0-77 34.6-77 77s34.4 77 77 77c42.4 0 77-34.6 77-77 0-42.6-34.4-77-77-77zM768.6 128h-132.8v208c0 49.6-1 113.4-69 113.4-69.2 0-79.8-54-79.8-109.8v-211.6h-132.8v427.6h127.4v-58.4h1.8c17.8 33.6 61.2 69 125.8 69 134.4 0 159.4-88.6 159.4-203.8v-234.4z" />
<glyph unicode="&#xe927;" glyph-name="magnifying-glass" d="M736 544c0 176.731-143.269 320-320 320s-320-143.269-320-320v0c0-176.731 143.269-320 320-320s320 143.269 320 320v0zM674.2 217.8c-70.8-56.2-160.6-89.8-258.2-89.8-229.8 0-416 186.2-416 416s186.2 416 416 416 416-186.2 416-416c0-97.6-33.6-187.4-89.8-258.2l267.8-267.8c18.8-18.8 18.8-49.2 0-67.8s-49.2-18.8-67.8 0l-268 267.6z" />
<glyph unicode="&#xe928;" glyph-name="pen-to-square" d="M882 842.2l24.2-24.2c18.8-18.8 18.8-49.2 0-67.8l-58.2-58.4-92.2 92.2 58.2 58.2c18.8 18.8 49.2 18.8 67.8 0zM419.6 447.6l268.4 268.6 92.2-92.2-268.6-268.4c-5.8-5.8-13-10-20.8-12.2l-117-33.4 33.4 117c2.2 7.8 6.4 15 12.2 20.8zM746.2 910l-394.6-394.4c-17.4-17.4-30-38.8-36.6-62.2l-57.2-200c-4.8-16.8-0.2-34.8 12.2-47.2s30.4-17 47.2-12.2l200 57.2c23.6 6.8 45 19.4 62.2 36.6l394.6 394.4c56.2 56.2 56.2 147.4 0 203.6l-24.2 24.2c-56.2 56.2-147.4 56.2-203.6 0zM176 832c-97.2 0-176-78.8-176-176v-544c0-97.2 78.8-176 176-176h544c97.2 0 176 78.8 176 176v224c0 26.6-21.4 48-48 48s-48-21.4-48-48v-224c0-44.2-35.8-80-80-80h-544c-44.2 0-80 35.8-80 80v544c0 44.2 35.8 80 80 80h224c26.6 0 48 21.4 48 48s-21.4 48-48 48h-224z" />
<glyph unicode="&#xe929;" glyph-name="podcast" horiz-adv-x="896" d="M800 512c0-122.2-62.2-230-156.8-293-2.8-34-8.2-73.2-14.2-109.8l-1.2-7.6c157.8 69 268.2 226.8 268.2 410.4 0 247.4-200.6 448-448 448s-448-200.6-448-448c0-183.6 110.4-341.2 268.4-410.6l-1.2 7.4c-6 36.8-11.4 76.2-14.2 110.2-94.8 63.2-157 170.8-157 293 0 194.4 157.6 352 352 352s352-157.6 352-352zM736 512c0 159-129 288-288 288s-288-129-288-288c0-84.8 36.6-161 95-213.8 3.2 14.2 8.6 27.8 16.2 40.6 10.2 17 23.4 30.4 37.6 41-32.8 34.4-52.8 81-52.8 132.2 0 106 86 192 192 192s192-86 192-192c0-51.2-20-97.8-52.8-132.2 14.4-10.4 27.4-23.8 37.6-41 7.6-12.6 12.8-26.2 16.2-40.6 58.4 52.8 95 129 95 213.8zM448 544c17.673 0 32-14.327 32-32s-14.327-32-32-32v0c-17.673 0-32 14.327-32 32s14.327 32 32 32v0zM448 384c70.692 0 128 57.308 128 128s-57.308 128-128 128v0c-70.692 0-128-57.308-128-128s57.308-128 128-128v0zM357.8-15.4c10.6-39.6 51-48.6 90.2-48.6s79.6 9.2 90.2 48.6c16.2 59.8 43 207.8 43 276.4 0 73-64.8 91-133.2 91s-133.2-18-133.2-91c0-68.8 26.8-217 43-276.4zM451 32c-1 0-2 0-3 0s-2.2 0-3 0c-6.2 26.6-13.4 63.8-19.8 102.8-7.8 47.4-13 90.8-14 118 1.2 0.2 2.8 0.6 4.4 0.8 8.6 1.6 19.4 2.4 32.6 2.4s24-0.8 32.6-2.4c1.6-0.2 3-0.6 4.4-0.8-1-27-6.2-70.2-14-117.6-6.4-39-13.8-76.2-20-103z" />
<glyph unicode="&#xe92a;" glyph-name="quote-left" horiz-adv-x="896" d="M0 528c0 132.6 107.4 240 240 240h16c35.4 0 64-28.6 64-64s-28.6-64-64-64h-16c-61.8 0-112-50.2-112-112v-16h128c70.6 0 128-57.4 128-128v-128c0-70.6-57.4-128-128-128h-128c-70.6 0-128 57.4-128 128v272zM512 528c0 132.6 107.4 240 240 240h16c35.4 0 64-28.6 64-64s-28.6-64-64-64h-16c-61.8 0-112-50.2-112-112v-16h128c70.6 0 128-57.4 128-128v-128c0-70.6-57.4-128-128-128h-128c-70.6 0-128 57.4-128 128v272z" />
<glyph unicode="&#xe92b;" glyph-name="quote-right" horiz-adv-x="896" d="M896 368c0-132.6-107.4-240-240-240h-16c-35.4 0-64 28.6-64 64s28.6 64 64 64h16c61.8 0 112 50.2 112 112v16h-128c-70.6 0-128 57.4-128 128v128c0 70.6 57.4 128 128 128h128c70.6 0 128-57.4 128-128v-272zM384 368c0-132.6-107.4-240-240-240h-16c-35.4 0-64 28.6-64 64s28.6 64 64 64h16c61.8 0 112 50.2 112 112v16h-128c-70.6 0-128 57.4-128 128v128c0 70.6 57.4 128 128 128h128c70.6 0 128-57.4 128-128v-272z" />
<glyph unicode="&#xe92c;" glyph-name="rectangle-history-circle-plus" horiz-adv-x="1280" d="M128 32h569c24.6-37.6 56-70.2 92.6-96h-661.6c-70.6 0-128 57.4-128 128v448c0 70.6 57.4 128 128 128h768c47.6 0 89-25.8 111-64.4-5 0.2-10 0.4-15 0.4-52.4 0-102.2-11.4-146.8-32h-717.2c-17.6 0-32-14.4-32-32v-448c0-17.6 14.4-32 32-32zM880 800c26.6 0 48-21.4 48-48s-21.4-48-48-48h-736c-26.6 0-48 21.4-48 48s21.4 48 48 48h736zM784 960c26.6 0 48-21.4 48-48s-21.4-48-48-48h-544c-26.6 0-48 21.4-48 48s21.4 48 48 48h544zM992 512c159.058 0 288-128.942 288-288s-128.942-288-288-288v0c-159.058 0-288 128.942-288 288s128.942 288 288 288v0zM1024 352c0 17.6-14.4 32-32 32s-32-14.4-32-32v-96h-96c-17.6 0-32-14.4-32-32s14.4-32 32-32h96v-96c0-17.6 14.4-32 32-32s32 14.4 32 32v96h96c17.6 0 32 14.4 32 32s-14.4 32-32 32h-96v96z" />
<glyph unicode="&#xe92d;" glyph-name="sparkles" d="M655 789.6c-9-3.4-15-12-15-21.6s6-18.2 15-21.6l113-42.4 42.4-113c3.4-9 12-15 21.6-15s18.2 6 21.6 15l42.4 113 113 42.4c9 3.4 15 12 15 21.6s-6 18.2-15 21.6l-113 42.4-42.4 113c-3.4 9-12 15-21.6 15s-18.2-6-21.6-15l-42.4-113-113-42.4zM18.6 480c-11.4-5.2-18.6-16.6-18.6-29.2s7.2-23.8 18.6-29l34-15.8 16.2-7.4 1.2-0.6 176.6-81.6 81.6-176.4 0.6-1.2 7.4-16.2 15.8-34.2c5.2-11.4 16.6-18.6 29-18.6s23.8 7.2 29 18.6l15.8 34.2 7.4 16.2 0.6 1.2 81.6 176.6 228.2 105.2c11.4 5.2 18.6 16.6 18.6 29s-7.2 23.8-18.6 29l-34.2 15.8-16.2 7.4-1.2 0.6-176.6 81.6-81.4 176.6-0.6 1.2-7.4 16.4-15.8 34.2c-5.2 11.4-16.6 18.6-29 18.6s-23.8-7.2-29-18.6l-15.8-34.2-7.4-16.2-0.6-1.2-81.6-176.6-228.2-105.4zM184.6 451l102.4 47.2c20.8 9.6 37.4 26.2 47 47l47.2 102.4 47.2-102.4c9.6-20.8 26.2-37.4 47-47l102.4-47.2-102.4-47.2c-20.8-9.6-37.4-26.2-47-47l-47.2-102.4-47.2 102.4c-9.6 20.8-26.2 37.4-47 47l-102.4 47zM768 192l-113-42.4c-9-3.4-15-12-15-21.6s6-18.2 15-21.6l113-42.4 42.4-113c3.4-9 12-15 21.6-15s18.2 6 21.6 15l42.4 113 113 42.4c9 3.4 15 12 15 21.6s-6 18.2-15 21.6l-113 42.4-42.4 113c-3.4 9-12 15-21.6 15s-18.2-6-21.6-15l-42.4-113z" />
<glyph unicode="&#xe92e;" glyph-name="square-check" horiz-adv-x="896" d="M128 800c-17.6 0-32-14.4-32-32v-640c0-17.6 14.4-32 32-32h640c17.6 0 32 14.4 32 32v640c0 17.6-14.4 32-32 32h-640zM0 768c0 70.6 57.4 128 128 128h640c70.6 0 128-57.4 128-128v-640c0-70.6-57.4-128-128-128h-640c-70.6 0-128 57.4-128 128v640zM674 542l-256-256c-18.8-18.8-49.2-18.8-67.8 0l-128 128c-18.8 18.8-18.8 49.2 0 67.8s49.2 18.8 67.8 0l94-94 222 222.2c18.8 18.8 49.2 18.8 67.8 0s18.8-49.2 0-67.8z" />
<glyph unicode="&#xe92f;" glyph-name="square-minus" horiz-adv-x="896" d="M128 800c-17.6 0-32-14.4-32-32v-640c0-17.6 14.4-32 32-32h640c17.6 0 32 14.4 32 32v640c0 17.6-14.4 32-32 32h-640zM0 768c0 70.6 57.4 128 128 128h640c70.6 0 128-57.4 128-128v-640c0-70.6-57.4-128-128-128h-640c-70.6 0-128 57.4-128 128v640zM304 496h288c26.6 0 48-21.4 48-48s-21.4-48-48-48h-288c-26.6 0-48 21.4-48 48s21.4 48 48 48z" />
<glyph unicode="&#xe930;" glyph-name="square" horiz-adv-x="896" d="M768 800c17.6 0 32-14.4 32-32v-640c0-17.6-14.4-32-32-32h-640c-17.6 0-32 14.4-32 32v640c0 17.6 14.4 32 32 32h640zM128 896c-70.6 0-128-57.4-128-128v-640c0-70.6 57.4-128 128-128h640c70.6 0 128 57.4 128 128v640c0 70.6-57.4 128-128 128h-640z" />
<glyph unicode="&#xe931;" glyph-name="table-columns" d="M96 128v512h368v-544h-336c-17.6 0-32 14.4-32 32zM560 96v544h368v-512c0-17.6-14.4-32-32-32h-336zM128 896c-70.6 0-128-57.4-128-128v-640c0-70.6 57.4-128 128-128h768c70.6 0 128 57.4 128 128v640c0 70.6-57.4 128-128 128h-768z" />
<glyph unicode="&#xe932;" glyph-name="toggle-off" horiz-adv-x="1152" d="M768 736c159 0 288-129 288-288s-129-288-288-288h-384c-159 0-288 129-288 288s129 288 288 288h384zM1152 448c0 212-172 384-384 384h-384c-212 0-384-172-384-384s172-384 384-384h384c212 0 384 172 384 384zM384 256c106.039 0 192 85.961 192 192s-85.961 192-192 192v0c-106.039 0-192-85.961-192-192s85.961-192 192-192v0z" />
<glyph unicode="&#xe933;" glyph-name="toggle-on" horiz-adv-x="1152" d="M384 736c-159 0-288-129-288-288s129-288 288-288h384c159 0 288 129 288 288s-129 288-288 288h-384zM0 448c0 212 172 384 384 384h384c212 0 384-172 384-384s-172-384-384-384h-384c-212 0-384 172-384 384zM768 640c106.039 0 192-85.961 192-192s-85.961-192-192-192v0c-106.039 0-192 85.961-192 192s85.961 192 192 192v0z" />
<glyph unicode="&#xe934;" glyph-name="trash" horiz-adv-x="896" d="M354.2 864h187.4c5.4 0 10.4-2.6 13.4-7.2l38-56.8h-290l38 56.8c3 4.4 8 7.2 13.4 7.2zM708.4 800l-73.4 110.2c-20.8 31-55.8 49.8-93.2 49.8h-187.6c-37.4 0-72.4-18.8-93.2-49.8l-73.4-110.2h-139.6c-26.6 0-48-21.4-48-48s21.4-48 48-48h23.2l48-649.4c5-66.8 60.6-118.6 127.6-118.6h402.4c67 0 122.6 51.8 127.6 118.6l48 649.4h23.2c26.6 0 48 21.4 48 48s-21.4 48-48 48h-139.6zM728.6 704l-47.6-642.4c-1.2-16.8-15.2-29.6-32-29.6h-402.2c-16.8 0-30.6 13-32 29.6l-47.4 642.4h561.2z" />
<glyph unicode="&#xe935;" glyph-name="user-light" horiz-adv-x="896" d="M640 704c0 106.039-85.961 192-192 192s-192-85.961-192-192v0c0-106.039 85.961-192 192-192s192 85.961 192 192v0zM192 704c0 141.385 114.615 256 256 256s256-114.615 256-256v0c0-141.385-114.615-256-256-256s-256 114.615-256 256v0zM64 0h768c-2.4 159.4-132.4 288-292.6 288h-182.8c-160 0-290-128.6-292.6-288zM0-4.6c0 197 159.6 356.6 356.6 356.6h182.8c197 0 356.6-159.6 356.6-356.6 0-32.8-26.6-59.4-59.4-59.4h-777.2c-32.8 0-59.4 26.6-59.4 59.4z" />
<glyph unicode="&#xe936;" glyph-name="x-twitter" d="M778.4 864h141.2l-308.4-352.4 362.8-479.6h-284l-222.6 290.8-254.4-290.8h-141.4l329.8 377-347.8 455h291.2l201-265.8 232.6 265.8zM728.8 116.4h78.2l-504.8 667.6h-84l510.6-667.6z" />
<glyph unicode="&#xe937;" glyph-name="xmark" horiz-adv-x="768" d="M690 686c18.8 18.8 18.8 49.2 0 67.8s-49.2 18.8-67.8 0l-238-238-238.2 238.2c-18.8 18.8-49.2 18.8-67.8 0s-18.8-49.2 0-67.8l238-238-238.2-238.2c-18.8-18.8-18.8-49.2 0-67.8s49.2-18.8 67.8 0l238 238 238.2-238.2c18.8-18.8 49.2-18.8 67.8 0s18.8 49.2 0 67.8l-238 238 238.2 238.2z" />
<glyph unicode="&#xe938;" glyph-name="align-right" horiz-adv-x="896" d="M848 880c26.6 0 48-21.4 48-48s-21.4-48-48-48h-480c-26.6 0-48 21.4-48 48s21.4 48 48 48h480zM848 624c26.6 0 48-21.4 48-48s-21.4-48-48-48h-800c-26.6 0-48 21.4-48 48s21.4 48 48 48h800zM896 320c0-26.6-21.4-48-48-48h-480c-26.6 0-48 21.4-48 48s21.4 48 48 48h480c26.6 0 48-21.4 48-48zM848 112c26.6 0 48-21.4 48-48s-21.4-48-48-48h-800c-26.6 0-48 21.4-48 48s21.4 48 48 48h800z" />
<glyph unicode="&#xe939;" glyph-name="chevron-down-light" d="M534.6 169.4c-12.4-12.4-32.8-12.4-45.2 0l-384 384c-12.4 12.4-12.4 32.8 0 45.2s32.8 12.4 45.2 0l361.4-361.4 361.4 361.4c12.4 12.4 32.8 12.4 45.2 0s12.4-32.8 0-45.2l-384-384z" />
<glyph unicode="&#xe93a;" glyph-name="chevron-left-light" horiz-adv-x="640" d="M41.4 425.4c-12.4 12.4-12.4 32.8 0 45.2l384 384c12.4 12.4 32.8 12.4 45.2 0s12.4-32.8 0-45.2l-361.4-361.4 361.4-361.4c12.4-12.4 12.4-32.8 0-45.2s-32.8-12.4-45.2 0l-384 384z" />
<glyph unicode="&#xe93b;" glyph-name="chevron-right-light" horiz-adv-x="640" d="M598.6 470.6c12.4-12.4 12.4-32.8 0-45.2l-384-384c-12.4-12.4-32.8-12.4-45.2 0s-12.4 32.8 0 45.2l361.4 361.4-361.4 361.4c-12.4 12.4-12.4 32.8 0 45.2s32.8 12.4 45.2 0l384-384z" />
<glyph unicode="&#xe93c;" glyph-name="chevron-up-light" d="M489.4 726.6c12.4 12.4 32.8 12.4 45.2 0l384-384c12.4-12.4 12.4-32.8 0-45.2s-32.8-12.4-45.2 0l-361.4 361.4-361.4-361.4c-12.4-12.4-32.8-12.4-45.2 0s-12.4 32.8 0 45.2l384 384z" />
<glyph unicode="&#xe93d;" glyph-name="circle-arrow-up-solid" d="M512-64c282.77 0 512 229.23 512 512s-229.23 512-512 512v0c-282.77 0-512-229.23-512-512s229.23-512 512-512v0zM770 498c18.8-18.8 18.8-49.2 0-67.8s-49.2-18.8-67.8 0l-142 142v-364.2c0-26.6-21.4-48-48-48s-48 21.4-48 48v364.2l-142-142c-18.8-18.8-49.2-18.8-67.8 0s-18.8 49.2 0 67.8l223.6 224c18.8 18.8 49.2 18.8 67.8 0l224.2-224z" />
<glyph unicode="&#xe93e;" glyph-name="circle-chevron-down" d="M512 32c-229.75 0-416 186.25-416 416s186.25 416 416 416v0c229.75 0 416-186.25 416-416s-186.25-416-416-416v0zM512 960c-282.77 0-512-229.23-512-512s229.23-512 512-512v0c282.77 0 512 229.23 512 512s-229.23 512-512 512v0zM270 478l208-208c18.8-18.8 49.2-18.8 67.8 0l208.2 208c18.8 18.8 18.8 49.2 0 67.8s-49.2 18.8-67.8 0l-174-174-174 174c-18.8 18.8-49.2 18.8-67.8 0s-18.8-49.2 0-67.8z" />
<glyph unicode="&#xe93f;" glyph-name="circle-chevron-left" d="M96 448c0 229.75 186.25 416 416 416s416-186.25 416-416v0c0-229.75-186.25-416-416-416s-416 186.25-416 416v0zM1024 448c0 282.77-229.23 512-512 512s-512-229.23-512-512v0c0-282.77 229.23-512 512-512s512 229.23 512 512v0zM542 690l-208-208c-18.8-18.8-18.8-49.2 0-67.8l208-208.2c18.8-18.8 49.2-18.8 67.8 0s18.8 49.2 0 67.8l-174 174 174 174c18.8 18.8 18.8 49.2 0 67.8s-49.2 18.8-67.8 0z" />
<glyph unicode="&#xe940;" glyph-name="circle-chevron-right" d="M928 448c0-229.75-186.25-416-416-416s-416 186.25-416 416v0c0 229.75 186.25 416 416 416s416-186.25 416-416v0zM0 448c0-282.77 229.23-512 512-512s512 229.23 512 512v0c0 282.77-229.23 512-512 512s-512-229.23-512-512v0zM482 206l208 208c18.8 18.8 18.8 49.2 0 67.8l-208 208.2c-18.8 18.8-49.2 18.8-67.8 0s-18.8-49.2 0-67.8l174-174-174-174c-18.8-18.8-18.8-49.2 0-67.8s49.2-18.8 67.8 0z" />
<glyph unicode="&#xe941;" glyph-name="circle-chevron-up" d="M512 864c229.75 0 416-186.25 416-416s-186.25-416-416-416v0c-229.75 0-416 186.25-416 416s186.25 416 416 416v0zM512-64c282.77 0 512 229.23 512 512s-229.23 512-512 512v0c-282.77 0-512-229.23-512-512s229.23-512 512-512v0zM754 418l-208 208c-18.8 18.8-49.2 18.8-67.8 0l-208.2-208c-18.8-18.8-18.8-49.2 0-67.8s49.2-18.8 67.8 0l174 174 174-174c18.8-18.8 49.2-18.8 67.8 0s18.8 49.2 0 67.8z" />
<glyph unicode="&#xe942;" glyph-name="ellipsis-vertical" horiz-adv-x="256" d="M128 224c-53.019 0-96-42.981-96-96s42.981-96 96-96v0c53.019 0 96 42.981 96 96s-42.981 96-96 96v0zM128 544c-53.019 0-96-42.981-96-96s42.981-96 96-96v0c53.019 0 96 42.981 96 96s-42.981 96-96 96v0zM224 768c0 53.019-42.981 96-96 96s-96-42.981-96-96v0c0-53.019 42.981-96 96-96s96 42.981 96 96v0z" />
<glyph unicode="&#xe943;" glyph-name="file-export" horiz-adv-x="1152" d="M672 64c0-17.6-14.4-32-32-32h-512c-17.6 0-32 14.4-32 32v768c0 17.6 14.4 32 32 32h320v-160c0-35.4 28.6-64 64-64h160v-192h96v203c0 34-13.4 66.6-37.4 90.6l-181.2 181c-24 24-56.4 37.4-90.4 37.4h-331c-70.6 0-128-57.4-128-128v-768c0-70.6 57.4-128 128-128h512c70.6 0 128 57.4 128 128v160h-96v-160zM978 530c-18.8 18.8-49.2 18.8-67.8 0s-18.8-49.2 0-67.8l78-78h-556.2c-26.6 0-48-21.4-48-48s21.4-48 48-48h556.2l-78-78c-18.8-18.8-18.8-49.2 0-67.8s49.2-18.8 67.8 0l160 160c18.8 18.8 18.8 49.2 0 67.8l-160 160z" />
<glyph unicode="&#xe944;" glyph-name="folder-open-light" horiz-adv-x="1152" d="M896 640v-64h64v64c0 70.6-57.4 128-128 128h-235c-34 0-66.6 13.4-90.6 37.4l-53 53.2c-24 24-56.6 37.4-90.6 37.4h-234.8c-70.6 0-128-57.4-128-128v-640c0-70.6 57.4-128 128-128h800c39.2 0 74.6 23.8 89.2 60.4l128 320c11.8 29.6 8.2 63-9.6 89.4s-47.8 42.2-79.6 42.2h-800c-39.2 0-74.6-23.8-89.2-60.4l-102.8-257.2v573.6c0 35.4 28.6 64 64 64h235c17 0 33.2-6.8 45.2-18.8v0l53-53c36-36 84.8-56.2 135.8-56.2h235c35.4 0 64-28.6 64-64zM768 64h-640c-10.6 0-20.6 5.2-26.4 14s-7.2 20-3.2 29.8l128 320c4.8 12.2 16.6 20.2 29.8 20.2h799.8c10.6 0 20.6-5.2 26.4-14s7.2-20 3.2-29.8l-128-320c-4.8-12.2-16.6-20.2-29.6-20.2h-160z" />
<glyph unicode="&#xe945;" glyph-name="folder-open" horiz-adv-x="1152" d="M768 0h96c22.8 0 43.8 12 55.2 31.8l224 384c11.6 19.8 11.6 44.2 0.2 64.2s-32.4 32-55.4 32h-800c-22.8 0-43.8-12-55.2-31.8l-136.8-234.4v522.2c0 17.6 14.4 32 32 32h235c8.4 0 16.6-3.4 22.6-9.4l53-53c42-42 99-65.6 158.4-65.6h235c17.6 0 32-14.4 32-32v-64h96v64c0 70.6-57.4 128-128 128h-235c-34 0-66.6 13.4-90.6 37.4l-53 53.2c-24 24-56.6 37.4-90.6 37.4h-234.8c-70.6 0-128-57.4-128-128v-640c0-70.6 57.4-128 128-128h640z" />
<glyph unicode="&#xe946;" glyph-name="circle-notch" d="M445.4 895.8c10-33.8-9.2-69.6-43-79.6-158.8-47.4-274.4-194.4-274.4-368.2 0-212 172-384 384-384s384 172 384 384c0 173.8-115.6 320.8-274.2 368.2-33.8 10-53.2 45.8-43 79.6s45.8 53.2 79.6 43c211.4-63 365.6-258.8 365.6-490.8 0-282.8-229.2-512-512-512s-512 229.2-512 512c0 232 154.2 427.8 365.8 490.8 33.8 10 69.6-9.2 79.6-43z" />
<glyph unicode="&#xe947;" glyph-name="loader" d="M657.4 938.8c-34 10-69.4-9.2-79.6-43.2s9.2-69.4 43.2-79.6c203.2-60.2 319.2-274 259-477.4-6.6-22-14.8-43-24.8-62.8-0.8-1.4-1.6-2.6-2.4-4-66.8-129.4-197.2-204.8-333.4-207.8 0 0 0 0-0.2 0-2.2 0-4.2 0-6.4 0-1.6 0-3 0-4.6 0-0.6 0-1.4 0-2 0-145.8 2.4-283.8 88-346 230.2-28 64.2-37 131.8-29.8 196.6 3.8 35-21.4 66.8-56.4 70.8-35 3.8-66.8-21.4-70.8-56.4-9.8-86.4 2.4-176.6 39.6-262 10-23 21.6-45 34.6-65.8 1-2 2-3.8 3.4-5.8 46.8-73.2 113.2-135.6 196-178.4 72.8-37.6 150.2-56 226.8-57 1.2 0 2.4 0 3.4 0 2.2 0 4.2 0 6.4 0 2.6 0 5.2 0 7.6 0 0.8 0 1.4 0 2.2 0 64.8 1.4 130.6 15.2 193.6 42.8 1.2 0.6 2.6 1.2 3.8 1.8 51.2 22.8 98.8 54.2 140.6 93.2 1 0.8 1.8 1.6 2.8 2.4 63.2 59.6 112 136.6 138.6 226 80.4 271.2-74.2 556-345.2 636.4z" />
<glyph unicode="&#xe948;" glyph-name="fire" horiz-adv-x="896" d="M178.6 647.4c47.4 82.6 107.8 158.6 162.4 211.8 37.4-37.4 81.8-94.4 120.2-143.4 7.6-9.6 14.8-19 21.8-27.8 9.2-11.6 23.4-18.4 38.2-18.2s28.8 7.2 37.8 19c6.6 8.6 15.4 21.6 24.6 34.8 5.2 7.6 10.6 15.2 15.6 22.4 11.2 15.8 21 29 28.8 38.2 40-41.6 82-106 114.8-176.8 35.4-76.4 57.2-154 57.2-212.6 0-206-157.6-362.8-352-362.8-196.6 0-352 156.8-352 362.8 0 75 32.4 164.8 82.6 252.4zM399 936.8c-32.4 30.8-83 31-115.4 0.2-64-60.2-134-147.2-188.2-242-54-94-95.4-201-95.4-300.2 0-256.6 196.2-458.8 448-458.8 249.2 0 448 201.8 448 458.8 0 78.2-27.8 170.4-66.2 253-38.4 83-90.2 162.4-143.8 214.2-32.6 31.6-84 31.6-116.6 0.2-15.8-15.2-34-40-48.6-60.6l-2.2-3.2c-37.4 47.6-81.8 102.6-119.6 138.4zM451.4 128c50.6 0 95.4 14 137.6 42 84.2 58.8 106.8 176.4 56.2 268.8-9 18-32 19.2-45 4l-50.4-58.6c-13.2-15.2-37-14.8-49.4 1-33 42-92 117-125.6 159.6-12.6 16-36.6 16.2-49.4 0.2-67.6-85-101.6-138.6-101.6-198.8 0.2-137 101.4-218.2 227.6-218.2z" />
<glyph unicode="&#xe949;" glyph-name="arrow-rotate-left" d="M80 512c-26.6 0-48 21.4-48 48v288c0 26.6 21.4 48 48 48s48-21.4 48-48v-160.2l40 47c82 98.4 205.8 161.2 344 161.2 247.4 0 448-200.6 448-448s-200.6-448-448-448c-100.8 0-194 33.4-268.8 89.6-21.2 16-25.4 46-9.6 67.2s46 25.4 67.2 9.6c58.8-44.2 131.8-70.4 211.2-70.4 194.4 0 352 157.6 352 352s-157.6 352-352 352c-108.6 0-205.8-49.2-270.4-126.8l-0.2-0.4-55.2-64.8h181.8c26.6 0 48-21.4 48-48s-21.4-48-48-48h-288z" />
<glyph unicode="&#xe94a;" glyph-name="bullseye-arrow" d="M723 523.2c8.4-23.6 13-48.8 13-75.2 0-123.8-100.2-224-224-224s-224 100.2-224 224 100.2 224 224 224c26.4 0 51.8-4.6 75.2-13l9.8 9.8-15.2 91.6c-22.6 5-45.8 7.6-69.8 7.6-176.8 0-320-143.2-320-320s143.2-320 320-320 320 143.2 320 320c0 24-2.6 47.2-7.6 69.8l-91.6 15.2-9.8-9.8zM917.8 539.4c6.6-29.4 10-60 10-91.4 0-229.8-186.2-416-416-416s-415.8 186.2-415.8 416 186.2 416 416 416c31.4 0 62-3.4 91.4-10l77.6 77.6c-53 18.4-109.8 28.4-169 28.4-282.8 0-512-229.2-512-512s229.2-512 512-512 512 229.2 512 512c0 59.2-10 116-28.6 169l-77.4-77.6zM730 598.2l101.4-16.8c20.4-3.4 41.2 3.2 55.8 17.8l102.4 102.4c16.2 16.2 10.6 43.8-10.8 52.4l-114.8 46-46 115c-8.6 21.4-36 27-52.4 10.8l-102.4-102.6c-14.6-14.6-21.2-35.4-17.8-55.8l16.8-101.4-184.2-184c-18.8-18.8-18.8-49.2 0-67.8s49.2-18.8 67.8 0l184.2 184.2z" />
<glyph unicode="&#xe94b;" glyph-name="clock" d="M928 448c0-229.75-186.25-416-416-416s-416 186.25-416 416v0c0 229.75 186.25 416 416 416s416-186.25 416-416v0zM0 448c0-282.77 229.23-512 512-512s512 229.23 512 512v0c0 282.77-229.23 512-512 512s-512-229.23-512-512v0zM464 720v-272c0-16 8-31 21.4-40l192-128c22-14.8 51.8-8.8 66.6 13.4s8.8 51.8-13.4 66.6l-170.6 113.6v246.4c0 26.6-21.4 48-48 48s-48-21.4-48-48z" />
<glyph unicode="&#xe94c;" glyph-name="star" horiz-adv-x="1152" d="M575.8 960c18.4 0 35.2-10.4 43.2-27l137.2-282.6 306.4-45.2c18-2.6 33-15.2 38.6-32.6s1-36.2-11.8-49l-222.2-220.4 52.4-311.2c3-18-4.4-36.2-19.2-47s-34.6-12-50.6-3.4l-274 146.4-273.8-146.2c-16.2-8.6-35.8-7.4-50.6 3.4s-22.4 29-19.4 47l52.4 311.2-222.2 220.2c-13 12.8-17.4 31.8-11.8 49s20.6 29.8 38.6 32.6l306.4 45.2 137.2 282.6c8.2 16.6 24.8 27 43.2 27zM575.8 802l-105-216.4c-7-14.2-20.4-24.2-36.2-26.6l-236.6-34.8 171.8-170.2c11-11 16.2-26.6 13.6-42l-40.6-239.4 210.4 112.4c14.2 7.6 31.2 7.6 45.2 0l210.4-112.4-40.4 239.2c-2.6 15.4 2.4 31 13.6 42l171.8 170.2-236.6 35c-15.6 2.4-29.2 12.2-36.2 26.6l-105.2 216.4z" />
<glyph unicode="&#xe94d;" glyph-name="down-left-and-up-right-to-center" d="M592 448h297.4c39 0 70.6 31.6 70.6 70.6 0 18.8-7.4 36.6-20.6 50l-55.6 55.4 108.2 108.2c37.4 37.4 37.4 98.2 0 135.8l-60.2 60c-37.4 37.4-98.2 37.4-135.8 0l-108-108.2-55.4 55.6c-13.2 13.2-31.2 20.6-50 20.6-39 0-70.6-31.6-70.6-70.6v-297.4c0-44.2 35.8-80 80-80zM782 590l46-46h-220v220.2l46-46c18.8-18.8 49.2-18.8 67.8 0l142 142 60.4-60.2-142-142c-18.8-18.8-18.8-49.2 0-67.8zM134.6 448c-39 0-70.6-31.6-70.6-70.6 0-18.8 7.4-36.6 20.6-50l55.6-55.4-108.2-108.2c-37.4-37.4-37.4-98.2 0-135.8l60.2-60c37.4-37.4 98.2-37.4 135.8 0l108 108.2 55.4-55.4c13.2-13.2 31.2-20.6 50-20.6 39 0 70.6 31.6 70.6 70.6v297.2c0 44.2-35.8 80-80 80h-297.4zM242 306l-46 46h220v-220.2l-46 46c-18.8 18.8-49.2 18.8-67.8 0l-142-142-60.4 60.2 142 142c18.8 18.8 18.8 49.2 0 67.8z" />
<glyph unicode="&#xe94e;" glyph-name="up-right-and-down-left-from-center" d="M646.6 960c-39 0-70.6-31.6-70.6-70.6 0-18.8 7.4-36.6 20.6-50l55.6-55.4-124.2-124.2c-37.4-37.4-37.4-98.2 0-135.8l60.2-60c37.4-37.4 98.2-37.4 135.8 0l124 124.2 55.4-55.4c13.2-13.2 31.2-20.6 50-20.6 39 0 70.6 31.6 70.6 70.6v297.2c0 44.2-35.8 80-80 80h-297.4zM754 818l-46 46h220v-220.2l-46 46c-18.8 18.8-49.2 18.8-67.8 0l-158-158-60.4 60.2 158 158c18.8 18.8 18.8 49.2 0 67.8zM377.4-64c39 0 70.6 31.6 70.6 70.6 0 18.8-7.4 36.6-20.6 50l-55.6 55.4 124.2 124.2c37.4 37.4 37.4 98.2 0 135.8l-60.2 60c-37.4 37.4-98.2 37.4-135.8 0l-124-124.2-55.4 55.6c-13.2 13.2-31.2 20.6-50 20.6-39 0-70.6-31.6-70.6-70.6v-297.4c0-44.2 35.8-80 80-80h297.4zM270 78l46-46h-220v220.2l46-46c18.8-18.8 49.2-18.8 67.8 0l158 158 60.4-60.2-158-158c-18.8-18.8-18.8-49.2 0-67.8z" />
<glyph unicode="&#xe94f;" glyph-name="video" horiz-adv-x="1152" d="M128 736c-17.6 0-32-14.4-32-32v-512c0-17.6 14.4-32 32-32h512c17.6 0 32 14.4 32 32v512c0 17.6-14.4 32-32 32h-512zM0 704c0 70.6 57.4 128 128 128h512c70.6 0 128-57.4 128-128v-512c0-70.6-57.4-128-128-128h-512c-70.6 0-128 57.4-128 128v512zM1056 233.2v429.6l-224-100.8v105.2l208.6 93.8c10.2 4.6 21.2 7 32.4 7 43.6 0 79-35.4 79-79v-482c0-43.6-35.4-79-79-79-11.2 0-22.2 2.4-32.4 7l-208.6 93.8v105.2l224-100.8z" />
<glyph unicode="&#xe950;" glyph-name="youtube" horiz-adv-x="1152" d="M1099.31 711.834c-12.562 47.3-49.574 84.552-96.568 97.194-85.18 22.972-426.742 22.972-426.742 22.972s-341.56 0-426.742-22.972c-46.994-12.644-84.006-49.894-96.568-97.194-22.824-85.734-22.824-264.61-22.824-264.61s0-178.876 22.824-264.61c12.562-47.3 49.574-83 96.568-95.642 85.182-22.972 426.742-22.972 426.742-22.972s341.56 0 426.742 22.972c46.994 12.642 84.006 48.342 96.568 95.642 22.824 85.734 22.824 264.61 22.824 264.61s0 178.876-22.824 264.61zM464.29 284.818v324.812l285.478-162.41-285.478-162.402z" />
<glyph unicode="&#xe951;" glyph-name="globe" d="M394.2 49c-109.2 32.2-199.6 108-251.2 207h141.4c26.8-87 69-155.8 109.8-207zM460.6 120c-27.2 36-54.6 81.2-75 136.2h252.8c-20.4-54.8-47.6-100-75-136.2-17.8-23.6-35.6-43.2-51.4-58.8-15.8 15.6-33.6 35.2-51.4 58.8zM352 448c0 34.2 2.8 66 8 96h304c5-30 8-61.8 8-96s-2.8-66-8-96h-304c-5 30-8 61.8-8 96zM262.8 544c-4.4-30.2-6.8-62.2-6.8-96s2.4-65.8 6.8-96h-155.6c-7.2 30.8-11.2 63-11.2 96s3.8 65.2 11.2 96h155.6zM385.6 640c20.4 54.8 47.6 100 75 136.2 17.8 23.6 35.6 43.2 51.4 58.8 15.8-15.6 33.6-35.2 51.4-58.8 27.2-36 54.6-81.2 75-136.2h-252.8zM761.2 544h155.6c7.2-30.8 11.2-63 11.2-96s-3.8-65.2-11.2-96h-155.6c4.4 30.2 6.8 62.2 6.8 96s-2.4 65.8-6.8 96zM881.2 640h-141.6c-26.8 87-69 155.8-109.8 207 109.2-32.2 199.6-108 251.2-207zM284.4 640h-141.6c51.6 99.2 142.2 174.8 251.2 207-40.8-51.2-83-120-109.8-207zM629.8 49c40.8 51.2 83 120 109.8 207h141.4c-51.6-99.2-142.2-174.8-251.2-207zM512-64c282.77 0 512 229.23 512 512s-229.23 512-512 512v0c-282.77 0-512-229.23-512-512s229.23-512 512-512v0z" />
<glyph unicode="&#xe952;" glyph-name="link" horiz-adv-x="1280" d="M1160.6 425.6c112.4 112.4 112.4 294.6 0 407-107 107-278.8 112.8-392.8 13l-12.2-10.8c-20-17.4-22-47.8-4.6-67.8s47.8-22 67.8-4.6l12.2 10.8c76 66.4 190.4 62.6 261.8-8.8 74.8-74.8 74.8-196.2 0-271.2l-226.6-226.4c-74.8-74.8-196.4-74.8-271.2 0-71.4 71.4-75.2 185.8-8.8 261.8l9.4 10.8c17.4 20 15.4 50.2-4.6 67.8s-50.2 15.4-67.8-4.6l-9.4-10.8c-99.6-114-93.8-285.8 13.2-392.8 112.4-112.4 294.6-112.4 407 0l226.6 226.6zM119.4 470.4c-112.4-112.4-112.4-294.6 0-406.8 107.2-107.2 279-112.8 393-13l12.2 10.8c20 17.4 22 47.8 4.6 67.8s-47.8 22-67.8 4.6l-12.2-10.8c-76-66.4-190.4-62.6-261.8 8.8-74.8 74.8-74.8 196.2 0 271.2l226.6 226.2c74.8 74.8 196.2 74.8 271.2 0 71.4-71.4 75.2-185.8 8.8-261.8l-10.8-12.2c-17.4-20-15.4-50.2 4.6-67.8s50.2-15.4 67.8 4.6l10.8 12.2c99.8 114 94 285.8-13 393-112.4 112.4-294.6 112.4-407 0l-227-226.8z" />
<glyph unicode="&#xe953;" glyph-name="location-dot" horiz-adv-x="768" d="M672 576c0 159-129 288-288 288s-288-129-288-288c0-24.8 9-63.2 30.6-114.4 21-49.6 50.8-104.4 85-159.8 57-92.4 123-181.6 172.4-245.2 49.6 63.6 115.6 152.8 172.4 245.2 34.2 55.4 64 110.2 85 159.8 21.6 51.2 30.6 89.6 30.6 114.4zM768 576c0-174.8-234-486-336.6-614.4-24.6-30.6-70.2-30.6-94.8 0-102.6 128.4-336.6 439.6-336.6 614.4 0 212 172 384 384 384s384-172 384-384zM448 576c0 35.346-28.654 64-64 64s-64-28.654-64-64v0c0-35.346 28.654-64 64-64s64 28.654 64 64v0zM224 576c0 88.366 71.634 160 160 160s160-71.634 160-160v0c0-88.366-71.634-160-160-160s-160 71.634-160 160v0z" />
<glyph unicode="&#xe954;" glyph-name="reddit-alien" d="M880.6 553c-30 0-56.4-12.4-75.8-31.8-71.4 49.4-167.6 81.2-274.2 84.6l55.4 249.6 176.4-39.6c0-43.2 35.2-78.4 78.4-78.4 44 0 79.4 36.2 79.4 79.4s-35.2 79.4-79.4 79.4c-30.8 0-57.4-18.6-70.6-44l-194.8 43.2c-9.8 2.6-19.4-4.4-22-14.2l-60.8-275.2c-105.8-4.4-201-36.2-272.6-85.6-19.4 20.2-46.8 32.6-76.8 32.6-111.2 0-147.6-149.2-45.8-200.2-3.6-15.8-5.2-32.6-5.2-49.4 0-167.6 188.8-303.4 420.6-303.4 232.8 0 421.6 135.8 421.6 303.4 0 16.8-1.8 34.4-6.2 50.2 99.8 51.2 63 199.4-47.6 199.4zM258.8 342.2c0 44 35.2 79.4 79.4 79.4 43.2 0 78.4-35.2 78.4-79.4 0-43.2-35.2-78.4-78.4-78.4-44-0.2-79.4 35.2-79.4 78.4zM687.4 155.2c-72.8-72.8-278.2-72.8-351 0-8 7-8 19.4 0 27.4 7 7 19.4 7 26.4 0 55.6-57 240-58 298 0 7 7 19.4 7 26.4 0 8.2-8 8.2-20.4 0.2-27.4zM685.8 263.6c-43.2 0-78.4 35.2-78.4 78.4 0 44 35.2 79.4 78.4 79.4 44 0 79.4-35.2 79.4-79.4-0.2-43-35.4-78.4-79.4-78.4z" />
<glyph unicode="&#xe955;" glyph-name="spotify" horiz-adv-x="992" d="M496 944c-273.8 0-496-222.2-496-496s222.2-496 496-496 496 222.2 496 496-222.2 496-496 496zM697.4 214.2c-8.4 0-13.6 2.6-21.4 7.2-124.8 75.2-270 78.4-413.4 49-7.8-2-18-5.2-23.8-5.2-19.4 0-31.6 15.4-31.6 31.6 0 20.6 12.2 30.4 27.2 33.6 163.8 36.2 331.2 33 474-52.4 12.2-7.8 19.4-14.8 19.4-33s-14.2-30.8-30.4-30.8zM751.2 345.4c-10.4 0-17.4 4.6-24.6 8.4-125 74-311.4 103.8-477.2 58.8-9.6-2.6-14.8-5.2-23.8-5.2-21.4 0-38.8 17.4-38.8 38.8s10.4 35.6 31 41.4c55.6 15.6 112.4 27.2 195.6 27.2 129.8 0 255.2-32.2 354-91 16.2-9.6 22.6-22 22.6-39.4-0.2-21.6-17-39-38.8-39zM813.2 497.8c-10.4 0-16.8 2.6-25.8 7.8-142.4 85-397 105.4-561.8 59.4-7.2-2-16.2-5.2-25.8-5.2-26.4 0-46.6 20.6-46.6 47.2 0 27.2 16.8 42.6 34.8 47.8 70.4 20.6 149.2 30.4 235 30.4 146 0 299-30.4 410.8-95.6 15.6-9 25.8-21.4 25.8-45.2 0-27.2-22-46.6-46.4-46.6z" />
<glyph unicode="&#xe956;" glyph-name="user" horiz-adv-x="896" d="M608 704c0 88.366-71.634 160-160 160s-160-71.634-160-160v0c0-88.366 71.634-160 160-160s160 71.634 160 160v0zM192 704c0 141.385 114.615 256 256 256s256-114.615 256-256v0c0-141.385-114.615-256-256-256s-256 114.615-256 256v0zM98.6 32h698.8c-17.8 126.6-126.6 224-258 224h-182.8c-131.4 0-240.2-97.4-258-224zM0-4.6c0 197 159.6 356.6 356.6 356.6h182.8c197 0 356.6-159.6 356.6-356.6 0-32.8-26.6-59.4-59.4-59.4h-777.2c-32.8 0-59.4 26.6-59.4 59.4z" />
<glyph unicode="&#xe957;" glyph-name="share-nodes" horiz-adv-x="896" d="M896 704c0-106-86-192-192-192-57.8 0-109.6 25.6-144.8 66l-179.4-89.8c2.8-13 4.2-26.4 4.2-40.2s-1.4-27.2-4.2-40.2l179.4-89.8c35.2 40.4 87 66 144.8 66 106 0 192-86 192-192s-86-192-192-192-192 86-192 192c0 13.8 1.4 27.2 4.2 40.2l-179.4 89.8c-35.2-40.4-87-66-144.8-66-106 0-192 86-192 192s86 192 192 192c57.8 0 109.6-25.6 144.8-66l179.4 89.8c-2.8 13-4.2 26.4-4.2 40.2 0 106 86 192 192 192s192-86 192-192zM192 352c53.019 0 96 42.981 96 96s-42.981 96-96 96v0c-53.019 0-96-42.981-96-96s42.981-96 96-96v0zM800 704c0 53.019-42.981 96-96 96s-96-42.981-96-96v0c0-53.019 42.981-96 96-96s96 42.981 96 96v0zM704 96c53.019 0 96 42.981 96 96s-42.981 96-96 96v0c-53.019 0-96-42.981-96-96s42.981-96 96-96v0z" />
<glyph unicode="&#xe958;" glyph-name="arrow-up-right-from-square" d="M608 912c0-26.6 21.4-48 48-48h204.2l-446.2-446c-18.8-18.8-18.8-49.2 0-67.8s49.2-18.8 67.8 0l446 446v-204.2c0-26.6 21.4-48 48-48s48 21.4 48 48v320c0 26.6-21.4 48-48 48h-319.8c-26.6 0-48-21.4-48-48zM144 896c-79.6 0-144-64.4-144-144v-672c0-79.6 64.4-144 144-144h672c79.6 0 144 64.4 144 144v256c0 26.6-21.4 48-48 48s-48-21.4-48-48v-256c0-26.6-21.4-48-48-48h-672c-26.6 0-48 21.4-48 48v672c0 26.6 21.4 48 48 48h256c26.6 0 48 21.4 48 48s-21.4 48-48 48h-256z" />
<glyph unicode="&#xe959;" glyph-name="arrow-up-solid" horiz-adv-x="768" d="M429.2 877.2c-25 25-65.6 25-90.6 0l-320-320c-25-25-25-65.6 0-90.6s65.6-25 90.6 0l210.8 211v-613.6c0-35.4 28.6-64 64-64s64 28.6 64 64v613.6l210.8-210.8c25-25 65.6-25 90.6 0s25 65.6 0 90.6l-320 320z" />
<glyph unicode="&#xe95a;" glyph-name="backward-step" horiz-adv-x="640" d="M160 784c0 26.6-21.4 48-48 48s-48-21.4-48-48v-672c0-26.6 21.4-48 48-48s48 21.4 48 48v210.2l353.4-247.4c10.2-7 22.2-10.8 34.6-10.8 33.2 0 60.2 27 60.2 60.2v647.6c-0.2 33.2-27.2 60.2-60.4 60.2-12.4 0-24.4-3.8-34.6-10.8l-353.2-247.4v210.2zM160 439.4v17.2l352 246.4v-510l-352 246.4z" />
<glyph unicode="&#xe95b;" glyph-name="forward-step" horiz-adv-x="640" d="M480 784c0 26.6 21.4 48 48 48s48-21.4 48-48v-672c0-26.6-21.4-48-48-48s-48 21.4-48 48v210.2l-353.4-247.4c-10.2-7-22.2-10.8-34.6-10.8-33 0-60 27-60 60.2v647.6c0 33.2 27 60.2 60.2 60.2 12.4 0 24.4-3.8 34.6-10.8l353.2-247.4v210.2zM480 439.4v17.2l-352 246.4v-510l352 246.4z" />
<glyph unicode="&#xe95c;" glyph-name="list" d="M80 864c-26.6 0-48-21.4-48-48v-96c0-26.6 21.4-48 48-48h96c26.6 0 48 21.4 48 48v96c0 26.6-21.4 48-48 48h-96zM368 816c-26.6 0-48-21.4-48-48s21.4-48 48-48h608c26.6 0 48 21.4 48 48s-21.4 48-48 48h-608zM368 496c-26.6 0-48-21.4-48-48s21.4-48 48-48h608c26.6 0 48 21.4 48 48s-21.4 48-48 48h-608zM368 176c-26.6 0-48-21.4-48-48s21.4-48 48-48h608c26.6 0 48 21.4 48 48s-21.4 48-48 48h-608zM32 496v-96c0-26.6 21.4-48 48-48h96c26.6 0 48 21.4 48 48v96c0 26.6-21.4 48-48 48h-96c-26.6 0-48-21.4-48-48zM80 224c-26.6 0-48-21.4-48-48v-96c0-26.6 21.4-48 48-48h96c26.6 0 48 21.4 48 48v96c0 26.6-21.4 48-48 48h-96z" />
<glyph unicode="&#xe95d;" glyph-name="pause-solid" horiz-adv-x="640" d="M96 832c-53 0-96-43-96-96v-576c0-53 43-96 96-96h64c53 0 96 43 96 96v576c0 53-43 96-96 96h-64zM480 832c-53 0-96-43-96-96v-576c0-53 43-96 96-96h64c53 0 96 43 96 96v576c0 53-43 96-96 96h-64z" />
<glyph unicode="&#xe95e;" glyph-name="pause" horiz-adv-x="640" d="M96 736v-576h96v576h-96zM0 736c0 53 43 96 96 96h96c53 0 96-43 96-96v-576c0-53-43-96-96-96h-96c-53 0-96 43-96 96v576zM448 736v-576h96v576h-96zM352 736c0 53 43 96 96 96h96c53 0 96-43 96-96v-576c0-53-43-96-96-96h-96c-53 0-96 43-96 96v576z" />
<glyph unicode="&#xe95f;" glyph-name="play-solid" horiz-adv-x="768" d="M146 882c-29.6 18.2-66.8 18.8-97 1.8s-49-49-49-83.8v-704c0-34.8 18.8-66.8 49-83.8s67.4-16.2 97 1.8l576 352c28.6 17.4 46 48.4 46 82s-17.4 64.4-46 82l-576 352z" />
<glyph unicode="&#xe960;" glyph-name="play" horiz-adv-x="768" d="M96 96l576 352-576 352v-704zM49 883.8c30.4 17 67.4 16.2 97-1.8l576-352c28.6-17.4 46-48.4 46-82s-17.4-64.4-46-82l-576-352c-29.6-18.2-66.8-18.8-97-1.8s-49 49-49 83.8v704c0 34.8 18.8 66.8 49 83.8z" />
<glyph unicode="&#xe961;" glyph-name="podcast-solid" horiz-adv-x="896" d="M638.8 216c97 62.6 161.2 171.8 161.2 296 0 194.4-157.6 352-352 352s-352-157.6-352-352c0-124.2 64.2-233.2 161.2-296 2.4-34.6 8-76 14.4-114.2l0.4-2c-160 68.6-272 227.2-272 412.2 0 247.4 200.6 448 448 448s448-200.6 448-448c0-185-112-343.8-272-412.2l0.4 2.2c6.2 38.4 12 79.6 14.4 114zM634.2 292.2c-3.2 11.4-7.8 22.2-14 32.4-11.6 19.4-27 34-43.8 44.8 39 35.2 63.6 86 63.6 142.6 0 106-86 192-192 192s-192-86-192-192c0-56.6 24.6-107.6 63.6-142.6-16.8-10.8-32.2-25.4-43.8-44.8-6.2-10.2-10.8-21-14-32.4-62.2 52.8-101.8 131.8-101.8 219.8 0 159 129 288 288 288s288-129 288-288c0-88-39.6-167-101.8-219.8zM448 336c65.8 0 128-17.2 128-87.6 0-66-25.8-208.2-41.2-265.8-10.2-38-49-46.8-86.8-46.8s-76.4 8.8-86.8 46.8c-15.6 57-41.2 199.4-41.2 265.6 0 70.2 62.2 87.6 128 87.6zM448 624c61.856 0 112-50.144 112-112s-50.144-112-112-112v0c-61.856 0-112 50.144-112 112s50.144 112 112 112v0z" />
<glyph unicode="&#xe962;" glyph-name="rotate-left" d="M386.4 464v51.6h96.4v-291.6h-57.6v240h-38.8zM563 482c16.6 26.2 44.4 39.2 83 39.2s66.4-13 83-39.2c16.6-26.2 25-62.2 25-108.4s-8.4-82.8-25-109.2c-16.6-26.4-44.4-39.6-83-39.6s-66.4 13.2-83 39.6c-16.6 26.4-25 62.8-25 109.2s8.4 82.2 25 108.4zM695 423.4c-2.6 13.4-7.6 24.4-15.2 33s-18.8 12.8-33.8 12.8-26.2-4.2-33.8-12.8c-7.6-8.6-12.6-19.6-15.2-33s-3.8-30-3.8-49.8 1.2-37.2 3.6-51c2.4-13.8 7.4-24.8 15.2-33.2s19-12.6 34-12.6 26.2 4.2 34 12.6c7.8 8.4 12.8 19.4 15.2 33.2s3.6 30.8 3.6 51-1.2 36.4-3.8 49.8zM282 714l82-82c13.4-13.4 20-30 20-50s-6.6-36.6-20-50c-13.4-13.4-30-20-50-20h-234c-29.4 2.6-45.4 18.6-48 48v234c0 20 6.6 36.6 20 50s30 20 50 20 36.6-6.6 50-20l62-62c81.4 73.4 180.6 111.4 298 114 84-1.4 159.4-22 226-62 68-38.6 121.4-92 160-160 40-66.6 60.6-142 62-226-1.4-84-22-159.4-62-226-38.6-68-92-121.4-160-160-66.6-40-142-60.6-226-62-102.6 1.4-192 31.4-268 90-22.6 20-26 42-10 66 20 22.6 42 26 66 10 60-45.4 130.6-68.6 212-70 100 2.6 182.6 37.4 248 104 66.6 65.4 101.4 148 104 248-2.6 100-37.4 182.6-104 248-65.4 66.6-148 101.4-248 104-89.4-1.4-166-30-230-86zM128 732v-124h124l-124 124z" />
<glyph unicode="&#xe963;" glyph-name="rotate-right" d="M263.8 515.2c17.4 14.6 40.4 21.8 69 21.8s36.2-3.4 50-10.2c13.8-6.8 24.4-16 31.4-27.6s10.6-24.8 10.6-39.4-4.4-31-13-42.6c-8.6-11.6-19-19.4-31-23.4v-1.6c15.4-4.8 27.6-13.4 36.2-25.6s13-28 13-47.2-3.6-30.2-11-42.8c-7.4-12.6-18.2-22.4-32.4-29.4s-31.4-10.6-51.4-10.6c-30.2 0-54.6 7.6-73.6 22.8s-29 37.6-30 67.2h54.4c0.6-13 5-23.6 13.4-31.4s20-11.8 34.6-11.8 24 3.8 31.4 11.4c7.4 7.6 11 17.4 11 29.4s-5 27.4-15.2 34.4c-10.2 7-25.8 10.4-47.2 10.4h-11.6v46h11.6c37.8 0 56.8 12.6 56.8 38s-3.4 20.4-10.2 26.8c-6.8 6.4-16.6 9.6-29.4 9.6s-22.2-3.4-29-10.2-10.8-15.4-11.8-25.8h-54.8c1.4 26.6 10.8 47.2 28.2 61.8zM499.4 496.6c16.6 26.2 44.4 39.2 83 39.2s66.4-13 83-39.2c16.6-26.2 25-62.2 25-108.4s-8.4-82.8-25-109.2c-16.6-26.4-44.4-39.6-83-39.6s-66.4 13.2-83 39.6c-16.6 26.4-25 62.8-25 109.2s8.4 82.2 25 108.4zM631.4 438c-2.6 13.4-7.6 24.4-15.2 33s-18.8 12.8-33.8 12.8-26.2-4.2-33.8-12.8c-7.6-8.6-12.6-19.6-15.2-33s-3.8-30-3.8-49.8 1.2-37.2 3.6-51c2.4-13.8 7.4-24.8 15.2-33.2s19-12.6 34-12.6 26.2 4.2 34 12.6 12.8 19.4 15.2 33.2c2.4 13.8 3.6 30.8 3.6 51s-1.2 36.4-3.8 49.8zM512 800c-100-2.6-182.6-37.4-248-104-66.6-65.4-101.4-148-104-248 2.6-100 37.4-182.6 104-248 65.4-66.6 148-101.4 248-104 81.4 1.4 152 24.6 212 70 24 16 46 12.6 66-10 16-24 12.6-46-10-66-76-58.6-165.4-88.6-268-90-84 1.4-159.4 22-226 62-68 38.6-121.4 92-160 160-40 66.6-60.6 142-62 226 1.4 84 22 159.4 62 226 38.6 68 92 121.4 160 160 66.6 40 142 60.6 226 62 117.4-2.6 216.6-40.6 298-114l62 62c13.4 13.4 30 20 50 20s36.6-6.6 50-20c13.4-13.4 20-30 20-50v-234c-2.6-29.4-18.6-45.4-48-48h-234c-20 0-36.6 6.6-50 20s-20 30-20 50 6.6 36.6 20 50l82 82c-64 56-140.6 84.6-230 86zM772 608h124v124l-124-124z" />
<glyph unicode="&#xe964;" glyph-name="video-solid" horiz-adv-x="1152" d="M0 704c0 70.6 57.4 128 128 128h512c70.6 0 128-57.4 128-128v-512c0-70.6-57.4-128-128-128h-512c-70.6 0-128 57.4-128 128v512zM1118.2 760.4c20.8-11.2 33.8-32.8 33.8-56.4v-512c0-23.6-13-45.2-33.8-56.4s-46-10-65.8 3.2l-220.4 147v324.4l28.4 19 192 128c19.6 13 44.8 14.4 65.8 3.2z" />
<glyph unicode="&#xe965;" glyph-name="volume-low" horiz-adv-x="896" d="M319.8 556.2l224.2 199.2v-614.8l-224.2 199.2c-8.8 7.8-20.2 12.2-31.8 12.2h-176c-8.8 0-16 7.2-16 16v160c0 8.8 7.2 16 16 16h176c11.8 0 23.2 4.4 31.8 12.2zM580.4 896c-14.6 0-28.6-5.4-39.6-15l-271-241h-157.8c-61.8 0-112-50.2-112-112v-160c0-61.8 50.2-112 112-112h157.8l271-241c11-9.6 25-15 39.6-15 33 0 59.6 26.6 59.6 59.6v776.8c0 33-26.6 59.6-59.6 59.6zM825.2 597c-20.6 16.8-50.8 13.6-67.6-7s-13.6-50.8 7-67.6c21.6-17.6 35.4-44.4 35.4-74.4s-13.8-56.8-35.4-74.6c-20.6-16.8-23.6-47-7-67.6s47-23.6 67.6-7c43 35.4 70.8 89 70.8 149.2s-27.8 113.8-70.8 149z" />
<glyph unicode="&#xe966;" glyph-name="volume-xmark" horiz-adv-x="1152" d="M319.8 556.2l224.2 199.2v-614.8l-224.2 199.2c-8.8 7.8-20.2 12.2-31.8 12.2h-176c-8.8 0-16 7.2-16 16v160c0 8.8 7.2 16 16 16h176c11.8 0 23.2 4.4 31.8 12.2zM580.4 896c-14.6 0-28.6-5.4-39.6-15l-271-241h-157.8c-61.8 0-112-50.2-112-112v-160c0-61.8 50.2-112 112-112h157.8l271-241c11-9.6 25-15 39.6-15 33 0 59.6 26.6 59.6 59.6v776.8c0 33-26.6 59.6-59.6 59.6zM850 626c-18.8 18.8-49.2 18.8-67.8 0s-18.8-49.2 0-67.8l110-110-110-110c-18.8-18.8-18.8-49.2 0-67.8s49.2-18.8 67.8 0l110 110 110-110c18.8-18.8 49.2-18.8 67.8 0s18.8 49.2 0 67.8l-110 110 110 110c18.8 18.8 18.8 49.2 0 67.8s-49.2 18.8-67.8 0l-110-110-110 110z" />
<glyph unicode="&#xe967;" glyph-name="volume" horiz-adv-x="1152" d="M383.8 556.2l224.2 199.2v-614.8l-224.2 199.2c-8.8 7.8-20.2 12.2-31.8 12.2h-176c-8.8 0-16 7.2-16 16v160c0 8.8 7.2 16 16 16h176c11.8 0 23.2 4.4 31.8 12.2zM644.4 896c-14.6 0-28.6-5.4-39.6-15l-271-241h-157.8c-61.8 0-112-50.2-112-112v-160c0-61.8 50.2-112 112-112h157.8l271-241c11-9.6 25-15 39.6-15 33 0 59.6 26.6 59.6 59.6v776.8c0 33-26.6 59.6-59.6 59.6zM1010.2 746c-20.6 16.8-50.8 13.6-67.6-7s-13.6-50.8 7-67.6c65-52.8 106.4-133.2 106.4-223.4s-41.4-170.6-106.4-223.6c-20.6-16.8-23.6-47-7-67.6s47-23.6 67.6-7c86.4 70.4 141.8 177.8 141.8 298s-55.4 227.6-141.8 298zM889.2 597c-20.6 16.8-50.8 13.6-67.6-7s-13.6-50.8 7-67.6c21.6-17.6 35.4-44.4 35.4-74.4s-13.8-56.8-35.4-74.6c-20.6-16.8-23.6-47-7-67.6s47-23.6 67.6-7c43 35.4 70.8 89 70.8 149.2s-27.8 113.8-70.8 149z" />
<glyph unicode="&#xe968;" glyph-name="minus" horiz-adv-x="896" d="M864 448c0-26.6-21.4-48-48-48h-736c-26.6 0-48 21.4-48 48s21.4 48 48 48h736c26.6 0 48-21.4 48-48z" />
<glyph unicode="&#xe969;" glyph-name="credit-card-solid" horiz-adv-x="1152" d="M128 896c-70.6 0-128-57.4-128-128v-64h1152v64c0 70.6-57.4 128-128 128h-896zM1152 512h-1152v-384c0-70.6 57.4-128 128-128h896c70.6 0 128 57.4 128 128v384zM224 256h128c17.6 0 32-14.4 32-32s-14.4-32-32-32h-128c-17.6 0-32 14.4-32 32s14.4 32 32 32zM448 224c0 17.6 14.4 32 32 32h256c17.6 0 32-14.4 32-32s-14.4-32-32-32h-256c-17.6 0-32 14.4-32 32z" />
<glyph unicode="&#xe96a;" glyph-name="lock-solid" horiz-adv-x="896" d="M288 672v-96h320v96c0 88.4-71.6 160-160 160s-160-71.6-160-160zM160 576v96c0 159 129 288 288 288s288-129 288-288v-96h32c70.6 0 128-57.4 128-128v-384c0-70.6-57.4-128-128-128h-640c-70.6 0-128 57.4-128 128v384c0 70.6 57.4 128 128 128h32z" />
<glyph unicode="&#xe96b;" glyph-name="circle-check" d="M512 864c229.75 0 416-186.25 416-416s-186.25-416-416-416v0c-229.75 0-416 186.25-416 416s186.25 416 416 416v0zM512-64c282.77 0 512 229.23 512 512s-229.23 512-512 512v0c-282.77 0-512-229.23-512-512s229.23-512 512-512v0zM738 542c18.8 18.8 18.8 49.2 0 67.8s-49.2 18.8-67.8 0l-222-222-94 94c-18.8 18.8-49.2 18.8-67.8 0s-18.8-49.2 0-67.8l128-128c18.8-18.8 49.2-18.8 67.8 0l255.8 256z" />
<glyph unicode="&#xe96c;" glyph-name="list-check" d="M307.6 815.8c17.8 19.8 16.2 50-3.6 67.8s-50 16.2-67.8-3.6l-110-122.2-44.2 44.2c-18.8 18.6-49.2 18.6-68 0s-18.8-49.2 0-67.8l80-80c9.4-9.4 22-14.4 35.2-14s25.6 6 34.4 15.8l144 160zM307.6 495.8c17.8 19.8 16.2 50-3.6 67.8s-50 16.2-67.8-3.6l-110-122.2-44.2 44.2c-18.8 18.8-49.2 18.8-67.8 0s-18.8-49.2 0-67.8l80-80c9.4-9.4 22-14.4 35.2-14s25.6 6 34.4 15.8l144 160zM432 720h544c26.6 0 48 21.4 48 48s-21.4 48-48 48h-544c-26.6 0-48-21.4-48-48s21.4-48 48-48zM384 448c0-26.6 21.4-48 48-48h544c26.6 0 48 21.4 48 48s-21.4 48-48 48h-544c-26.6 0-48-21.4-48-48zM320 128c0-26.6 21.4-48 48-48h608c26.6 0 48 21.4 48 48s-21.4 48-48 48h-608c-26.6 0-48-21.4-48-48zM192 128c0 35.346-28.654 64-64 64s-64-28.654-64-64v0c0-35.346 28.654-64 64-64s64 28.654 64 64v0z" />
<glyph unicode="&#xe96d;" glyph-name="lock" horiz-adv-x="896" d="M288 704v-128h320v128c0 88.4-71.6 160-160 160s-160-71.6-160-160zM192 576v128c0 141.4 114.6 256 256 256s256-114.6 256-256v-128h64c70.6 0 128-57.4 128-128v-384c0-70.6-57.4-128-128-128h-640c-70.6 0-128 57.4-128 128v384c0 70.6 57.4 128 128 128h64zM96 448v-384c0-17.6 14.4-32 32-32h640c17.6 0 32 14.4 32 32v384c0 17.6-14.4 32-32 32h-640c-17.6 0-32-14.4-32-32z" />
<glyph unicode="&#xe96e;" glyph-name="circle-arrow-down-solid" d="M512 960c-282.77 0-512-229.23-512-512s229.23-512 512-512v0c282.77 0 512 229.23 512 512s-229.23 512-512 512v0zM254 398c-18.8 18.8-18.8 49.2 0 67.8s49.2 18.8 67.8 0l142-142 0.2 364.2c0 26.6 21.4 48 48 48s48-21.4 48-48v-364.2l142 142c18.8 18.8 49.2 18.8 67.8 0s18.8-49.2 0-67.8l-223.8-224c-18.8-18.8-49.2-18.8-67.8 0l-224.2 224z" />
<glyph unicode="&#xe96f;" glyph-name="chart-line" d="M96 848c0 26.6-21.4 48-48 48s-48-21.4-48-48v-704c0-79.6 64.4-144 144-144h832c26.6 0 48 21.4 48 48s-21.4 48-48 48h-832c-26.6 0-48 21.4-48 48v704zM946 622c18.8 18.8 18.8 49.2 0 67.8s-49.2 18.8-67.8 0l-238-238-158 158c-9 9-21.2 14-34 14s-25-5-34-14l-192-192c-18.8-18.8-18.8-49.2 0-67.8s49.2-18.8 67.8 0l158 158 158-158c18.8-18.8 49.2-18.8 67.8 0l272.2 272z" />
<glyph unicode="&#xe970;" glyph-name="list-ol" d="M48 848c0 26.6 21.4 48 48 48h64c26.6 0 48-21.4 48-48v-240h32c26.6 0 48-21.4 48-48s-21.4-48-48-48h-160c-26.6 0-48 21.4-48 48s21.4 48 48 48h32v192h-16c-26.6 0-48 21.4-48 48zM173.4 277.6c-13 14.8-36.6 13.8-48-2.4l-22.4-31c-15.4-21.6-45.4-26.6-67-11.2s-26.6 45.4-11.2 67l22.2 31.2c47.4 66.4 144.6 71.2 198.4 9.8 42.6-48.8 41.6-121.8-2.2-169.4l-69.6-75.6h66.4c26.6 0 48-21.4 48-48s-21.4-48-48-48h-176c-19 0-36.4 11.2-44 28.8s-4.2 37.8 8.6 51.8l144 156c10.6 11.6 10.8 29.2 0.6 41zM432 816h544c26.6 0 48-21.4 48-48s-21.4-48-48-48h-544c-26.6 0-48 21.4-48 48s21.4 48 48 48zM432 496h544c26.6 0 48-21.4 48-48s-21.4-48-48-48h-544c-26.6 0-48 21.4-48 48s21.4 48 48 48zM432 176h544c26.6 0 48-21.4 48-48s-21.4-48-48-48h-544c-26.6 0-48 21.4-48 48s21.4 48 48 48z" />
</font>
</defs>
</svg>
